<?xml version="1.0" encoding="UTF-8"?>
<svg xmlns="http://www.w3.org/2000/svg" width="24" height="25" viewBox="0 0 24 25" fill="none">
  <g clip-path="url(#clip0_5002_13487)">
    <path d="M12 24.6318C18.6274 24.6318 24 19.2593 24 12.6318C24 6.00442 18.6274 0.631836 12 0.631836C5.37258 0.631836 0 6.00442 0 12.6318C0 19.2593 5.37258 24.6318 12 24.6318Z" fill="#012169"></path>
    <path d="M10.496 0.735836L6 5.23264L4.248 3.47984C3.74417 3.90753 3.27621 4.37576 2.8488 4.87984L4.6008 6.63184L0.104 11.1278C0.0381339 11.6265 0.00339999 12.1288 0 12.6318H1.3992L6 8.03104L10.6008 12.6318H12V11.2326L7.3992 6.63184L12 2.03104V0.631836C11.497 0.635236 10.9947 0.66997 10.496 0.735836Z" fill="white"></path>
    <path d="M7.2 1.63672C6.3479 2.0123 5.54247 2.4859 4.8 3.04792V4.63192H3.0736C2.02764 5.79704 1.2204 7.15603 0.697601 8.63192H4.8V12.6319H7.2V8.63192H12V4.63192H7.2V1.63672Z" fill="white"></path>
    <path d="M12 0.631836C11.668 0.631836 11.3424 0.655036 11.0168 0.681436L5.5336 6.16544L3.5144 4.14624C3.3592 4.30624 3.2176 4.47104 3.0704 4.63504L5.5336 7.09824L0 12.6318H0.9328L6.4664 7.09824L12 12.6318V11.6982L6.4664 6.16544L12 0.631836Z" fill="#C8102E"></path>
    <path d="M6.72001 1.86865C6.22146 2.10834 5.74028 2.38261 5.28001 2.68945V5.43185H2.41601C1.85398 6.17432 1.38039 6.97975 1.00481 7.83185H5.28001V12.6319H6.72001V7.83185H12V5.43185H6.72001V1.86865Z" fill="#C8102E"></path>
    <path d="M6.36079 18.1119L7.09039 18.8799L6.94479 17.8311L7.99999 17.7391L7.08879 17.1983L7.67519 16.3167L6.68479 16.6911L6.36079 15.6831L6.03599 16.6911L5.04559 16.3167L5.63199 17.1983L4.72079 17.7391L5.77599 17.8311L5.63119 18.8799L6.36079 18.1119Z" fill="white"></path>
    <path d="M14.2752 12.6244L14.7384 13.1124L14.6464 12.446L15.3168 12.3876L14.7384 12.0444L15.1104 11.4836L14.4816 11.722L14.2752 11.082L14.0696 11.722L13.44 11.4836L13.8128 12.0444L13.2344 12.3876L13.904 12.446L13.812 13.1124L14.2752 12.6244Z" fill="white"></path>
    <path d="M18.0136 8.57494L18.4776 9.06214L18.3848 8.39574L19.0552 8.33734L18.4768 7.99414L18.8488 7.43414L18.22 7.67254L18.0136 7.03174L17.808 7.67254L17.1792 7.43414L17.5512 7.99414L16.9728 8.33734L17.6432 8.39574L17.5504 9.06214L18.0136 8.57494Z" fill="white"></path>
    <path d="M21.3368 11.6277L21.8008 12.1157L21.708 11.4493L22.3784 11.3909L21.8 11.0477L22.172 10.4869L21.5432 10.7253L21.3368 10.0845L21.1312 10.7253L20.5024 10.4869L20.8744 11.0477L20.296 11.3909L20.9664 11.4493L20.8736 12.1157L21.3368 11.6277Z" fill="white"></path>
    <path d="M18.0136 18.5439L18.4776 19.0319L18.3848 18.3655L19.0552 18.3071L18.4768 17.9639L18.8488 17.4039L18.22 17.6415L18.0136 17.0015L17.808 17.6415L17.1792 17.4039L17.5512 17.9639L16.9728 18.3071L17.6432 18.3655L17.5504 19.0319L18.0136 18.5439Z" fill="white"></path>
    <path d="M19.5096 13.9845L19.8752 14.2117L19.7728 13.7933L20.1016 13.5149L19.672 13.4837L19.5096 13.0845L19.3464 13.4837L18.9168 13.5149L19.2464 13.7933L19.1432 14.2117L19.5096 13.9845Z" fill="white"></path>
  </g>
  <defs>
    <clipPath id="clip0_5002_13487">
      <rect width="24" height="24" fill="white" transform="translate(0 0.631836)"></rect>
    </clipPath>
  </defs>
</svg>
