<?xml version="1.0" encoding="UTF-8"?>
<!-- Generator: Adobe Illustrator 29.1.0, SVG Export Plug-In . SVG Version: 9.03 Build 55587)  -->
<svg xmlns="http://www.w3.org/2000/svg" xmlns:xlink="http://www.w3.org/1999/xlink" version="1.1" id="Layer_1" x="0px" y="0px" width="125px" height="60px" viewBox="0 0 125 60" style="enable-background:new 0 0 125 60;" xml:space="preserve">
<style type="text/css">
	.st0{fill:#F68727;}
</style>
<path d="M40.6,40c-0.4-0.2-0.6-0.4-0.6-0.7c0-0.3,0.5-0.2,0.8,0.1c0.2,0.2,0.4,0.2,0.5,0.1c0.4-0.2,0.3-0.4-0.4-0.7  c-0.9-0.3-1.2-0.9-0.7-1.4c0.5-0.5,1.7-0.4,1.9,0.2c0.1,0.3-0.3,0.4-0.8,0.2c-0.3-0.1-0.4-0.2-0.5,0c-0.2,0.2-0.1,0.4,0.5,0.6  c0.3,0,0.6,0.2,0.7,0.3c0.2,0.2,0.3,0.9,0,1.2C41.9,40.1,41.1,40.2,40.6,40z"></path>
<path d="M15.4,39c-0.5-1.8-0.5-1.8-0.1-1.8c0.3,0,0.4,0.1,0.5,0.6c0.2,1,0.3,1.1,0.5,0.2c0.2-0.7,0.2-0.8,0.5-0.8  c0.3,0,0.4,0.2,0.6,1.2l0.1,0.4l0.1-0.4c0.1-0.2,0.2-0.6,0.2-0.9c0.1-0.3,0.2-0.4,0.4-0.4c0.4,0,0.4,0,0,1.6  c-0.3,1.1-0.4,1.3-0.7,1.3c-0.3,0-0.4-0.1-0.5-0.8c-0.2-0.9-0.3-0.9-0.5,0.1c-0.1,0.5-0.2,0.7-0.5,0.7C15.8,40,15.7,39.9,15.4,39z"></path>
<path d="M18.9,38.6l0-1.4l1,0c0.9,0,1,0,1,0.3c0,0.3-0.1,0.3-0.7,0.3c-0.5,0-0.7,0.1-0.7,0.2c0,0.2,0.2,0.2,0.6,0.2  c0.5,0,0.6,0,0.6,0.3c0,0.3-0.1,0.3-0.6,0.3s-0.6,0-0.6,0.3c0,0.3,0.1,0.3,0.7,0.3c0.5,0,0.7,0.1,0.8,0.3C21.1,40,21,40,20,40h-1.1  L18.9,38.6z"></path>
<path d="M22.5,38.6v-1.4h0.4c0.4,0,0.5,0.1,0.7,0.8c0.1,0.4,0.3,0.8,0.4,0.8s0.3-0.4,0.4-0.8c0.2-0.7,0.3-0.8,0.7-0.8h0.4v1.4  c0,1.3,0,1.4-0.3,1.4c-0.3,0-0.3-0.1-0.3-0.8l0-0.8l-0.3,0.8c-0.2,0.6-0.3,0.8-0.6,0.7c-0.2,0-0.4-0.3-0.6-0.9l-0.3-0.8l0,0.9  c0,0.7,0,0.9-0.3,0.9C22.5,40,22.5,39.9,22.5,38.6z"></path>
<path d="M25.8,39.8c0-0.1,0.3-0.7,0.5-1.4c0.4-1.2,0.5-1.2,0.9-1.2c0.4,0,0.5,0,0.9,1.2c0.2,0.7,0.5,1.3,0.5,1.4  c0,0.1-0.1,0.2-0.3,0.2c-0.3,0-0.4-0.1-0.5-0.3c-0.1-0.2-0.2-0.3-0.6-0.3c-0.4,0-0.5,0.1-0.6,0.3c-0.1,0.2-0.2,0.3-0.5,0.3  C25.9,40,25.8,39.9,25.8,39.8z M27.5,38.7c0.1-0.1-0.2-0.8-0.4-0.7c-0.2,0.1-0.2,0.8,0.1,0.8C27.3,38.8,27.4,38.7,27.5,38.7z"></path>
<path d="M28.9,38.6c0-1.3,0-1.4,0.3-1.4c0.2,0,0.3,0.1,0.3,0.4c0,0.3,0.1,0.4,0.2,0.4c0.1,0,0.3-0.2,0.5-0.4  c0.2-0.3,0.5-0.4,0.8-0.4h0.5l-0.5,0.5c-0.3,0.3-0.5,0.5-0.5,0.6c0,0.1,0.2,0.4,0.4,0.7c0.7,1,0.7,1,0.2,1c-0.3,0-0.5-0.1-0.6-0.4  c-0.3-0.6-0.6-0.9-0.8-0.6c-0.1,0.1-0.1,0.4-0.1,0.6c0,0.3-0.1,0.4-0.3,0.4C28.9,40,28.9,39.9,28.9,38.6z"></path>
<path d="M31.8,38.6v-1.4h0.9c0.5,0,0.9,0,1,0c0.1,0,0.1,0.1,0.1,0.3c0,0.2-0.2,0.3-0.7,0.3c-0.9,0.1-1,0.4-0.1,0.4  c0.6,0,0.7,0,0.7,0.3c0,0.2-0.1,0.3-0.6,0.3c-0.5,0-0.6,0.1-0.6,0.3c0,0.2,0.2,0.2,0.7,0.3c0.6,0,0.7,0.1,0.7,0.3  c0,0.3-0.1,0.3-1.1,0.3h-1.1V38.6z"></path>
<path d="M35.3,39.9c-0.2-0.1-0.1-2.5,0-2.7c0.1-0.1,0.2-0.1,0.4-0.1c0.2,0.1,0.3,0.3,0.3,1.5c0,1.3,0,1.4-0.3,1.4  C35.5,40,35.4,39.9,35.3,39.9z"></path>
<path d="M37.2,38.9v-1.1h-0.4c-0.3,0-0.5-0.1-0.5-0.3c-0.1-0.3,0-0.3,1.1-0.3c0.6,0,1.2,0,1.3,0c0.1,0,0.1,0.1,0.1,0.3  c0,0.2-0.2,0.3-0.5,0.3c-0.5,0.1-0.5,0.1-0.5,1.1c0,1,0,1-0.3,1.1C37.2,40,37.2,40,37.2,38.9z"></path>
<path d="M42.6,38.6c0-1.2,0-1.4,0.3-1.5c0.2-0.1,0.3-0.1,0.4-0.1c0,0,0.1,0.7,0.1,1.5c0,1.3,0,1.4-0.3,1.4  C42.7,40,42.7,39.9,42.6,38.6z"></path>
<path d="M43.8,38.6v-1.4h0.5c0.4,0,0.5,0.1,0.7,0.8c0.1,0.4,0.3,0.9,0.4,0.9c0.1,0,0.2-0.3,0.4-0.8c0.2-0.8,0.3-0.9,0.7-0.9h0.4v1.4  c0,1.3,0,1.4-0.3,1.4c-0.3,0-0.3-0.1-0.3-0.8l0-0.8l-0.3,0.7c-0.2,0.5-0.4,0.8-0.6,0.8c-0.3,0-0.4-0.1-0.6-0.8l-0.3-0.9l0,0.9  c0,0.7-0.1,0.9-0.3,0.9C43.8,40,43.8,39.9,43.8,38.6z"></path>
<path d="M47.3,38.5l0-1.5l0.8,0c1.1,0.1,1.4,0.2,1.4,0.9c0,0.7-0.2,0.9-1,1C48,39.1,48,39.2,48,39.6c0,0.4-0.1,0.4-0.4,0.4h-0.4  L47.3,38.5z M48.7,38.3c0.2-0.3,0.1-0.5-0.4-0.5c-0.3,0-0.4,0.1-0.4,0.4C48,38.6,48.4,38.6,48.7,38.3z"></path>
<path d="M49.8,38.6c0-1.3,0-1.4,0.3-1.5c0.2,0,0.3,0,0.4,0c0,0,0.1,0.6,0.1,1.2v1.1h0.7c0.4,0,0.7,0.1,0.7,0.2c0,0.1,0.1,0.1,0.2,0  c0.1-0.1,0.2-0.7,0.1-1.2c0-0.5,0-1,0-1.1c0-0.1,0.5-0.1,1-0.1c0.9,0,1,0.1,1,0.3c0,0.2-0.1,0.3-0.7,0.3c-0.9,0.1-1,0.4-0.1,0.5  c0.4,0,0.6,0.1,0.6,0.3c0,0.1-0.2,0.2-0.6,0.3c-0.5,0-0.6,0.1-0.6,0.3c0,0.2,0.1,0.3,0.8,0.3c0.6,0,0.8,0,0.8,0.3  c0,0.3-0.1,0.3-2.3,0.3h-2.3V38.6z"></path>
<path d="M79.5,34.9c-0.1-0.1,0-0.2,0.2-0.2c0.2,0-0.8-0.1-2.2,0c-2,0-2.6-0.1-3.3-0.3C73.1,34,72.3,33.1,72,32  c-0.2-0.9-0.1-2.9,0.2-4.8c0.7-3.6,0.9-4.4,1.3-5.2c0.7-1.6,2.1-2.6,3.9-2.9c1.2-0.2,4.6-0.2,5.6,0c2.2,0.4,3.1,2.2,2.7,5.2  c-0.6,5.1-1.3,7.4-2.4,8.7c-0.5,0.6-1.7,1.3-2.1,1.3c-0.1,0-0.2,0.1-0.3,0.1c0,0.1,0.1,0.1,0.2,0.1c0.2,0,0.3,0,0.3,0.2  c0,0.2-0.2,0.3-1,0.3C80,35,79.5,35,79.5,34.9z M80.7,31.2c0.3-0.2,0.6-0.7,0.7-1.1c0.3-0.8,0.7-3.2,1-5.4c0.3-2.5,0.1-2.8-2.9-2.8  c-2,0-2.6,0.2-3,1.2c-0.5,1-1.4,6.4-1.2,7.4c0.2,0.9,0.5,1,2.9,1C80.2,31.6,80.3,31.6,80.7,31.2z"></path>
<path d="M15.6,34.5c-0.1-0.1,0.2-1.8,0.5-3.7c0.1-0.4,0.2-1.1,0.2-1.5c0-0.4,0.2-1.5,0.4-2.5c0.2-0.9,0.4-2.2,0.4-2.7  c0.4-2.7,0.8-4.7,0.9-4.8c0.1-0.1,2.2-0.1,4.7-0.1c5.2,0,5.4,0.1,6,1.2c0.3,0.5,0.3,0.8,0.3,1.9c0,2.1-0.5,3.4-1.6,4l-0.6,0.3  l0.5,0.2c0.8,0.3,1,0.9,0.9,2.6c-0.2,2.8-1.1,4.4-2.9,5C24.6,34.5,15.8,34.7,15.6,34.5z M24.5,31.4c0.4-0.3,0.6-1.3,0.6-2.3  c0-1.1-0.2-1.1-3-1.1h-2.3l-0.3,1.6c-0.4,2.4-0.7,2.2,2.2,2.1C23.9,31.7,24.3,31.6,24.5,31.4z M24.5,25.3c0.9-0.2,1.1-0.6,1.3-1.8  c0.2-1.6,0.2-1.6-2.7-1.6l-2.3,0l-0.1,0.5c-0.4,2.1-0.5,2.9-0.4,3C20.4,25.5,23.8,25.5,24.5,25.3z"></path>
<path d="M30,34.4c0-0.1,0-0.7,0.2-1.5c0.3-1.7,0.6-3.6,1-6c0.2-1.1,0.4-2.3,0.5-2.8c0.1-0.4,0.2-1.3,0.3-1.9  c0.1-0.6,0.2-1.5,0.3-2.1l0.2-1l5.1,0l5.1,0l-0.1,0.8c-0.1,0.4-0.2,1.1-0.2,1.5l-0.1,0.7l-3.5,0c-3.2,0-3.5,0.1-3.6,0.3  c-0.2,0.5-0.4,2-0.4,2.5v0.4H38h3.3l-0.1,0.6c-0.1,0.3-0.1,0.9-0.2,1.3L40.9,28l-3.3,0l-3.3,0L34.1,29c-0.1,0.5-0.2,1.3-0.3,1.8  l-0.1,0.9l3.4,0c1.9,0,3.5,0,3.5,0c0,0,0,0.7-0.2,1.5l-0.2,1.5l-5.1,0C32,34.6,30.1,34.5,30,34.4z"></path>
<path d="M45.9,33.9c0-0.4,0.2-1.3,0.3-2.1c0.1-0.7,0.3-2,0.5-2.8c0.1-0.8,0.3-2.1,0.5-2.8c0.1-0.7,0.3-1.9,0.4-2.6l0.2-1.3h-2h-2  l0.1-0.6c0.1-0.4,0.2-1.1,0.3-1.6l0.2-0.9H50h5.7v0.3c0,0.2-0.1,0.9-0.2,1.5c-0.1,0.6-0.2,1.2-0.2,1.2c0,0-0.9,0.1-2.1,0.1H51  l-0.1,0.6c-0.3,1.8-0.6,3.6-0.8,4.8c-0.1,0.7-0.4,2.5-0.6,3.8c-0.2,1.4-0.4,2.6-0.5,2.8c-0.1,0.3-0.1,0.3-1.7,0.3h-1.6L45.9,33.9z"></path>
<path d="M55.1,34.5c0-0.1,0.1-1.1,0.3-2.4c0.2-1.2,0.5-3.1,0.7-4.1c0.2-1,0.4-2.5,0.5-3.3c0.1-0.8,0.3-2.1,0.5-2.8  c0.1-0.8,0.3-1.7,0.3-2l0.1-0.6l2.3,0l2.3,0l1.9,5.6c1.2,3.5,1.9,5.6,2,5.4c0.1-0.1,0.2-0.9,0.3-1.7c0.2-1.4,0.3-2.1,0.9-5.8  c0.1-0.8,0.3-1.9,0.4-2.5l0.2-1l1.6,0l1.6,0l-0.1,0.3c-0.1,0.2-0.2,0.9-0.3,1.5c-0.1,0.6-0.2,1.4-0.3,1.8c-0.1,0.4-0.4,2.2-0.7,4.1  c-0.3,1.9-0.7,4.3-0.9,5.3c-0.2,1-0.3,2-0.3,2.1c0,0.2-0.4,0.2-2.3,0.3c-1.7,0-2.3,0-2.4-0.1c-0.1-0.1-1-2.6-1.9-5.6  c-1-3-1.8-5.4-1.9-5.4c-0.1,0-0.4,1.5-0.9,4.9c-0.2,1.1-0.4,2.3-0.4,2.7c-0.1,0.4-0.2,1-0.2,1.4c0,0.4-0.2,1-0.2,1.5l-0.2,0.8h-1.5  C55.9,34.6,55.2,34.5,55.1,34.5z"></path>
<path d="M88.2,33.6c0-0.1,0.1-0.2,0.2-0.3c0.2-0.1,0.2-0.3,0.1-1.6c-0.2-1.8-0.4-4.1-0.7-8.1c-0.1-1.6-0.3-3.3-0.3-3.7l-0.1-0.7h1.7  h1.7l0.1,1.8c0,1,0.2,2.4,0.2,3.2c0.1,0.8,0.2,2.5,0.2,3.7c0,1.3,0.2,2.4,0.2,2.6c0.1,0.2,0.5-0.6,1.4-2.8c0.7-1.7,1.7-4.1,2.2-5.3  c0.5-1.2,1-2.4,1.1-2.7l0.2-0.4l1.7,0c1.5,0,1.7,0,1.8,0.2c0.1,0.3,0.4,3.7,0.7,8.7c0.1,1.3,0.2,2.5,0.3,2.5c0,0.1,0.4-0.8,0.8-1.8  c0.4-1.1,1.4-3.6,2.2-5.7l1.5-3.8l1.7,0l1.7,0l-0.1,0.3c0,0.2-0.5,1.4-1,2.6c-0.5,1.2-1.3,3.2-1.8,4.4c-0.5,1.2-1.3,3.1-1.7,4.2  c-0.5,1.3-0.8,2-0.7,2.1c0.1,0,0.2,0.2,0.2,0.3c0,0.2-0.2,0.2-1.2,0.2c-0.6-0.1-2-0.1-2.9-0.2c-1.3-0.1-1.8-0.1-1.8-0.3  c0-0.1,0.1-0.2,0.2-0.2c0.1,0,0.2-0.1,0.2-0.2c0-0.1-0.1-0.7-0.1-1.2c-0.2-2.8-0.4-5.3-0.5-6.1c-0.1-0.8-0.1-0.9-0.3-0.5  c-0.2,0.4-3.3,8.1-3.3,8.2c0,0,0.1,0,0.2,0c0.1,0,0.2,0.1,0.2,0.3c0,0.2-0.3,0.3-1.3,0.4C90.9,33.6,88.2,33.8,88.2,33.6z"></path>
<path class="st0" d="M57.4,40.4c0-0.1,0-0.2,0.1-0.2c0.1,0,2.5-0.6,4.9-1.3c0.9-0.2,4.3-1.1,6.1-1.6c3.5-0.9,5.4-1.3,8.2-1.9  c2.1-0.4,3-0.7,3-0.9c0-0.1,0.3-0.1,0.7-0.1c0.4,0,1.5-0.1,2.5-0.3c2.1-0.4,4.1-0.7,6.9-1c1.1-0.1,2.5-0.3,3.2-0.4  c1.4-0.2,7-0.3,9.2-0.1c3.4,0.2,6,1.3,7.1,2.9c0.4,0.6,0.5,0.9,0.5,1.8c0.1,1,0.1,1-0.2,0.8c-2.2-2.4-10.8-3.2-22.2-2.1  c-1.2,0.1-3,0.3-3.9,0.4c-2.7,0.3-7.5,0.9-9.3,1.2c-0.4,0.1-1.5,0.2-2.4,0.4c-0.9,0.1-2.2,0.3-2.9,0.4c-0.7,0.1-1.8,0.3-2.6,0.4  c-0.8,0.1-2,0.3-2.7,0.4c-0.7,0.1-1.8,0.3-2.5,0.4c-1.6,0.3-3.2,0.6-3.6,0.7C57.5,40.6,57.4,40.5,57.4,40.4z"></path>
</svg>
