<?xml version="1.0" encoding="UTF-8"?>
<svg xmlns="http://www.w3.org/2000/svg" width="125" height="60" viewBox="0 0 125 60" fill="none">
  <path fill-rule="evenodd" clip-rule="evenodd" d="M88.2968 36.615H90.3021V23.0109H88.2968V36.6258V36.615Z" fill="#2D2E2C"></path>
  <path fill-rule="evenodd" clip-rule="evenodd" d="M107.115 34.783V30.6747H113.413V28.8427H107.115V24.832H113.879V23.0109H105.109V36.6258H114.215V34.7939H107.115V34.783Z" fill="#2D2E2C"></path>
  <path fill-rule="evenodd" clip-rule="evenodd" d="M74.4434 32.0514L65.3921 23.0109V36.6258H67.2782V27.6937L76.3296 36.615V23.0109H74.4434V32.0514Z" fill="#2D2E2C"></path>
  <path fill-rule="evenodd" clip-rule="evenodd" d="M101.283 32.1056L92.2317 23.0109V36.6258H94.1178V27.7479L103.169 36.5608V23.0109H101.283V32.1056Z" fill="#2D2E2C"></path>
  <path fill-rule="evenodd" clip-rule="evenodd" d="M28.9591 36.6258V23.0109H37.9888V25.775H32.0918V28.3549H37.6744V30.989H32.0918V33.8183H38.3356V36.6258H28.9591Z" fill="#ED3536"></path>
  <path fill-rule="evenodd" clip-rule="evenodd" d="M50.4763 24.355C51.0182 23.8239 51.6578 23.3686 52.3624 23.0109H39.1919V25.8184H42.9859V36.6258H46.227V25.8184H49.3272C49.6524 25.2764 50.0318 24.7886 50.4763 24.355Z" fill="#ED3536"></path>
  <path fill-rule="evenodd" clip-rule="evenodd" d="M61.3162 29.8509C61.3162 30.5338 61.197 31.195 60.9693 31.8021C60.7417 32.4091 60.4165 32.9403 59.9937 33.3847C59.571 33.8291 59.0615 34.1868 58.4761 34.4578C57.8908 34.718 57.2187 34.8589 56.4816 34.8589C55.7445 34.8589 55.0724 34.7288 54.4871 34.4578C53.9017 34.1977 53.3814 33.8291 52.9695 33.3847C52.5467 32.9403 52.2215 32.4091 51.9939 31.8021C51.7662 31.195 51.647 30.5446 51.647 29.8509C51.647 29.1571 51.7662 28.5067 51.9939 27.8997C52.2215 27.2927 52.5467 26.7615 52.9695 26.3171C53.3922 25.8726 53.9017 25.5149 54.4871 25.2439C55.0724 24.9838 55.7445 24.8428 56.4816 24.8428C57.2187 24.8428 57.8908 24.9729 58.4761 25.2439C59.0615 25.5041 59.5818 25.8726 59.9937 26.3171C60.4165 26.7615 60.7417 27.3035 60.9693 27.8997C61.197 28.5067 61.3162 29.168 61.3162 29.8509ZM61.4571 24.9838C60.8501 24.3767 60.113 23.8889 59.2675 23.542C58.4219 23.1952 57.4789 23.0217 56.4708 23.0217C55.4626 23.0217 54.5196 23.1952 53.6741 23.542C52.8285 23.8889 52.0914 24.3767 51.4844 24.9838C50.8774 25.5908 50.4004 26.3279 50.0535 27.1517C49.7066 27.9756 49.5332 28.8861 49.5332 29.8509C49.5332 30.8156 49.7066 31.7262 50.0535 32.55C50.4004 33.3739 50.8774 34.111 51.4844 34.718C52.0914 35.325 52.8285 35.8128 53.6741 36.1597C54.5196 36.5066 55.4626 36.68 56.4708 36.68C57.4789 36.68 58.4219 36.5066 59.2675 36.1597C60.113 35.8128 60.8501 35.325 61.4571 34.718C62.0641 34.111 62.5411 33.3739 62.888 32.55C63.2349 31.7262 63.4083 30.8156 63.4083 29.8509C63.4083 28.8861 63.2349 27.9864 62.888 27.1517C62.5411 26.3279 62.0641 25.5908 61.4571 24.9838Z" fill="#2D2E2C"></path>
  <path fill-rule="evenodd" clip-rule="evenodd" d="M80.2644 23.0109H78.259V36.6258H86.3565V34.7939H80.2644V23.0109Z" fill="#2D2E2C"></path>
  <path fill-rule="evenodd" clip-rule="evenodd" d="M24.2437 33.092V33.1245C24.2437 33.1245 24.2111 33.1462 24.2111 33.157C24.0702 33.363 23.8968 33.5256 23.7017 33.6448C23.4957 33.7749 23.2572 33.8616 22.9862 33.9158C22.7152 33.97 22.4551 33.9917 22.1949 33.9917H19.279V33.699C19.279 32.7993 19.3007 30.7397 19.3115 30.3061C19.3115 30.1543 19.3115 30.0134 19.279 29.8833V29.84L19.2356 29.7424C19.1814 29.6015 19.1272 29.5365 19.1055 29.504C19.1055 29.4931 19.0839 29.4823 19.0839 29.4714L18.8996 29.2438L20.2979 29.569C22.5526 30.176 23.5391 30.8698 23.9835 31.3576C24.623 32.1814 24.3412 32.8752 24.2437 33.0703V33.092ZM27.81 32.7559V32.68C27.81 32.5825 27.81 32.4741 27.7883 32.3657V32.3115V32.2898C27.7883 32.2465 27.7775 32.1923 27.7666 32.1489V32.1055L27.7449 31.9863C27.5173 30.9131 26.8669 30.3495 26.7368 30.2411C25.4902 29.1246 23.0187 28.4525 19.3765 28.2357H19.2681V25.6233H21.5228C21.7722 25.6233 22.0431 25.6449 22.3141 25.6883C22.5851 25.7317 22.8236 25.8075 23.0296 25.9051C23.2355 26.0027 23.3981 26.1327 23.5282 26.3062C23.6475 26.4796 23.7125 26.6964 23.7233 26.9566C23.7233 27.2167 23.6691 27.4335 23.5499 27.6178C23.5282 27.6612 23.4957 27.6937 23.4632 27.737C23.3873 27.8238 23.1055 28.1164 22.3792 28.3549C23.2247 28.5067 24.4063 28.7668 25.3818 29.1896C25.5011 29.1354 25.5986 29.0812 25.6962 29.027C25.8913 28.9186 26.0106 28.8319 26.1298 28.7235C26.2382 28.6368 26.2924 28.5717 26.2924 28.5717C26.3358 28.5284 26.3683 28.4958 26.4116 28.4416C26.8994 27.9322 27.1379 27.2818 27.1379 26.5121C27.1379 25.7642 26.9645 25.1463 26.6284 24.691C26.2924 24.2358 25.848 23.878 25.306 23.6179C24.7748 23.3686 24.1678 23.1951 23.5065 23.1192C22.8453 23.0325 22.1841 23 21.5228 23H15.8644V28.1815H15.8536C13.1653 28.2248 10 28.4958 10 28.4958C11.1165 28.4958 15.8644 28.8102 15.8644 28.8102H15.8861V36.6583H22.1732C22.8453 36.6583 23.5174 36.5933 24.2003 36.4632C24.8724 36.3331 25.4902 36.1271 26.0214 35.8345C26.5634 35.5418 26.997 35.1516 27.3439 34.6746C27.6799 34.2085 27.8425 33.6123 27.8533 32.9185V32.8643C27.8533 32.8643 27.8533 32.821 27.8533 32.7884L27.81 32.7559Z" fill="#ED3536"></path>
</svg>
