<?xml version="1.0" encoding="UTF-8"?>
<!-- Generator: Adobe Illustrator 29.1.0, SVG Export Plug-In . SVG Version: 9.03 Build 55587)  -->
<svg xmlns:v="https://vecta.io/nano" xmlns="http://www.w3.org/2000/svg" xmlns:xlink="http://www.w3.org/1999/xlink" version="1.1" id="Layer_1" x="0px" y="0px" width="125px" height="60px" viewBox="0 0 125 60" style="enable-background:new 0 0 125 60;" xml:space="preserve">
<style type="text/css">
	.st0{fill:#000810;}
	.st1{fill:#FFFFFF;}
	.st2{fill:url(#SVGID_1_);}
</style>
<path class="st0" d="M105.8,36.9c1.5-2.1,2.3-4.7,2.3-7.3c0-2.6-0.8-5.1-2.3-7.2c-0.8-1.1-1.8-1.9-3.1-1.9H66.9  c0.9,0.3,1.6,0.9,2.2,1.8c1.5,2.2,2.3,4.7,2.3,7.3c0,2.6-0.8,5.2-2.3,7.3c-0.6,0.9-1.4,1.6-2.3,1.8h35.8  C104,38.9,105,38.1,105.8,36.9L105.8,36.9z"></path>
<path class="st1" d="M19.2,22.5c-1.5,2.2-2.3,4.7-2.3,7.3c0,2.6,0.8,5.2,2.3,7.3c0.6,1.2,1.8,1.8,3.1,1.8h44.5  c0.9-0.3,1.7-0.9,2.3-1.8c1.5-2.2,2.3-4.7,2.3-7.3c0-2.6-0.8-5.2-2.3-7.3c-0.6-0.9-1.3-1.5-2.2-1.8H22.4  C21,20.6,19.8,21.3,19.2,22.5L19.2,22.5z"></path>
<path class="st0" d="M21.7,22.4h8.8c0.6,0,1.2,0.1,1.8,0.2s1.1,0.4,1.5,0.7s0.8,0.7,1.1,1.2c0.3,0.5,0.4,1,0.4,1.7  c0,0.5-0.1,1-0.2,1.4s-0.3,0.7-0.5,1c-0.1,0.2-0.3,0.4-0.5,0.5c0,0-0.3-0.2,0.1,0s0.6,0.4,0.8,0.7s0.4,0.6,0.6,1.1  c0.1,0.4,0.2,0.8,0.2,1.3c0,0.7-0.1,1.3-0.4,1.9s-0.6,1-1,1.4c-0.4,0.4-0.9,0.7-1.5,0.9c-0.6,0.2-1.2,0.3-1.8,0.3h-9.3  C21.7,36.6,21.7,22.4,21.7,22.4z M30.4,28.4c0.6,0,1,0,1.4-0.4c0.3-0.3,0.5-0.6,0.5-1.1c0-0.5-0.2-0.8-0.5-1.1  c-0.3-0.3-0.8-0.4-1.4-0.4h-5.6v2.9L30.4,28.4L30.4,28.4L30.4,28.4z M30.6,33.6c0.6,0,1.1,0,1.4-0.3s0.4-0.6,0.4-1.2  c0-0.5-0.1-0.8-0.4-1.1s-0.8-0.4-1.4-0.4h-5.7v2.9L30.6,33.6L30.6,33.6z M37,22.3h13.1v3.1h-9.6V28h9.4v3.2h-9.4v2.5h9.6v3H37  L37,22.3L37,22.3z M57.3,25.4h-6v-3.1h15.6v3.1h-5.9v11.2h-3.7L57.3,25.4L57.3,25.4z"></path>
<path class="st1" d="M77.3,36.7c-0.9-0.3-1.6-0.7-2.3-1.2c-0.6-0.5-1.1-1.2-1.5-1.9c-0.4-0.7-0.4-1.5-0.4-2.4v-8.9H77v8.9  c0,0.8,0.2,1.4,0.7,1.9s2,0.7,2.9,0.7c0.9,0,2.4-0.2,2.8-0.7s0.7-1.1,0.7-1.9v-8.9h3.9v8.9c0,0.9-0.2,1.7-0.5,2.5s-0.8,1.4-1.4,1.9  c-0.6,0.5-1.4,0.9-2.3,1.2s-2.3,0.4-3.4,0.4C79.6,37.1,78.1,37,77.3,36.7L77.3,36.7z M104,32.6c0-0.6-0.1-1.2-0.3-1.6  s-0.6-0.9-1.1-1.2c-0.5-0.4-1.2-0.6-2-0.9s-1.9-0.5-3.1-0.7L95,27.6c-0.6-0.2-1-0.4-1.3-0.5s-0.5-0.4-0.6-0.6  C93,26.3,93,26.1,93,25.9c0-0.5,0.3-0.9,0.9-1.1c0.6-0.2,1.4-0.4,2.4-0.4c1.1,0,2,0.2,2.6,0.6c0.6,0.4,0.9,0.9,0.9,1.6v0.1V27h3.6  v-0.3v-0.1v-0.3c0-0.6-0.1-1.2-0.4-1.8s-0.7-1-1.3-1.4s-1.3-0.7-2.2-0.9c-0.9-0.2-1.9-0.3-3.2-0.3c-1.2,0-2.2,0.1-3.1,0.3  s-1.6,0.5-2.2,0.8c-0.6,0.4-1,0.8-1.3,1.3c-0.3,0.5-0.4,1-0.4,1.6v0.2v0.1c0,0.5,0.1,1.1,0.4,1.5c0.2,0.4,0.6,0.8,1.1,1.1  s1.1,0.6,1.9,0.9c0.9,0.3,1.8,0.5,2.7,0.7l2.7,0.6c0.7,0.2,1.2,0.4,1.5,0.6s0.6,0.4,0.7,0.6c0.1,0.2,0.1,0.4,0.1,0.6  c0,0.5-0.3,0.9-0.9,1.2c-0.6,0.3-1.6,0.5-3,0.5c-1.5,0-2.6-0.2-3.2-0.6c-0.6-0.4-1-1-1-1.8v-0.4v-0.3h-3.5v0.3v0.5v0.3  c0,0.7,0.1,1.3,0.4,1.8s0.8,1,1.4,1.4c0.6,0.4,1.4,0.7,2.4,0.9c1,0.2,2.1,0.3,3.5,0.3c2.4,0,4.3-0.4,5.5-1.1  c1.2-0.7,1.8-1.8,1.8-3.1v-0.2C103.9,32.7,103.9,32.7,104,32.6L104,32.6z"></path>
<linearGradient id="SVGID_1_" gradientUnits="userSpaceOnUse" x1="62.5" y1="42.431" x2="62.5" y2="22.0948" gradientTransform="matrix(1 0 0 -1 0 62)">
	<stop offset="0" style="stop-color:#DFE4E7"></stop>
	<stop offset="0.416" style="stop-color:#DDE2E5"></stop>
	<stop offset="0.644" style="stop-color:#D5DADE"></stop>
	<stop offset="0.825" style="stop-color:#C7CED2"></stop>
	<stop offset="0.982" style="stop-color:#B4BCC1"></stop>
	<stop offset="1" style="stop-color:#B1B9BF"></stop>
</linearGradient>
<path class="st2" d="M104.3,19.6c1.4,0,2.5,0.8,3.3,2.1c1.6,2.4,2.4,5.1,2.4,8c0,2.9-0.8,5.7-2.4,8.1c-0.8,1.3-1.9,2.2-3.3,2.2H20.8  c-1.4,0-2.7-0.8-3.3-2c-1.6-2.4-2.5-5.2-2.4-8.1c0-2.9,0.8-5.7,2.4-8.1c0.7-1.3,1.9-2.1,3.3-2.1L104.3,19.6z M102.7,20.6H22.4  c-1.3,0-2.5,0.7-3.2,1.9c-1.5,2.2-2.3,4.7-2.3,7.3c0,2.6,0.8,5.2,2.3,7.3c0.6,1.2,1.8,1.8,3.1,1.8h80.3c1.3,0,2.3-0.8,3.1-1.9  c1.5-2.1,2.3-4.7,2.3-7.3c0-2.6-0.8-5.1-2.3-7.2C105.1,21.3,104,20.6,102.7,20.6L102.7,20.6z"></path>
</svg>
