<?xml version="1.0" encoding="UTF-8"?>
<svg xmlns="http://www.w3.org/2000/svg" width="125" height="60" viewBox="0 0 125 60" fill="none">
  <path d="M21.9961 24.857C23.3059 24.857 24.4358 25.3758 25.3847 26.4123C26.3204 27.4356 26.7888 28.6945 26.7888 30.1896C26.7888 31.6978 26.3204 32.9632 25.3847 33.9866C24.449 35.0105 23.3196 35.5222 21.9961 35.5222C20.6995 35.5222 19.7034 35.1113 19.0085 34.2901V35.2389H16V21.0993H19.0073V26.089C19.7028 25.2672 20.6983 24.857 21.9949 24.857H21.9961ZM19.67 31.987C20.1241 32.4313 20.6995 32.6537 21.3944 32.6537C22.0893 32.6537 22.6576 32.4313 23.0986 31.987C23.5533 31.5427 23.7803 30.9434 23.7803 30.1896C23.7803 29.4352 23.5533 28.8358 23.0992 28.3916C22.6576 27.9473 22.0893 27.7248 21.3944 27.7248C20.6995 27.7248 20.1247 27.9473 19.67 28.3916C19.229 28.8358 19.0079 29.4352 19.0079 30.1896C19.0079 30.9434 19.229 31.5433 19.67 31.987ZM38.2989 31.4014H31.1806C31.5152 32.3436 32.3171 32.8153 33.5869 32.8153C34.4025 32.8153 35.0442 32.5589 35.5121 32.0478L37.9183 33.4415C36.9425 34.8286 35.4852 35.5222 33.5468 35.5222C31.8761 35.5222 30.5257 35.0171 29.4962 34.0075C28.4936 32.9972 27.9923 31.7246 27.9923 30.1896C27.9923 28.6808 28.487 27.4153 29.4765 26.392C30.4791 25.3686 31.762 24.857 33.3263 24.857C34.7837 24.857 35.9931 25.3686 36.9557 26.392C37.9314 27.3885 38.4196 28.6546 38.4196 30.1896C38.4196 30.6202 38.3796 31.0245 38.2989 31.4014ZM31.1203 29.1388H35.4314C35.1374 28.0755 34.4294 27.5435 33.306 27.5435C32.1432 27.5435 31.4149 28.0755 31.1203 29.1388ZM45.707 25.1396V28.0481H43.6413V31.6238C43.6413 32.0138 43.7955 32.2697 44.1026 32.3913C44.4104 32.4987 44.9451 32.5327 45.707 32.4921V35.2389C43.8087 35.4417 42.4851 35.2592 41.7364 34.6939C41.0015 34.1148 40.634 33.0915 40.634 31.6238V28.0481H39.0297V25.1396H40.634V23.2205L43.6413 22.3117V25.1396H45.707Z" fill="#F9B035"></path>
  <path d="M57.6682 30.5528L59.1124 25.1397H62.3205L59.1118 35.2396H56.3046L54.7009 29.8461L53.0965 35.239H50.2894L47.0807 25.1397H50.2894L51.733 30.5528L53.2973 25.1397H56.1045L57.6682 30.5528ZM69.3898 24.857C70.4725 24.857 71.3616 25.2267 72.0565 25.968C72.7783 26.7218 73.1392 27.7451 73.1392 29.0381V35.239H70.1313V29.4823C70.1313 28.9039 69.9711 28.4524 69.6503 28.1286C69.3294 27.806 68.9081 27.6444 68.3871 27.6444C67.7986 27.6444 67.3373 27.8263 67.0033 28.1894C66.6824 28.5401 66.5222 29.0518 66.5222 29.7251V35.2396H63.5143V21.0999H66.5222V26.0891C67.1234 25.2673 68.0794 24.857 69.3898 24.857ZM82.4832 26.0891V25.1391H85.4912V35.239H82.4832V34.2896C81.7883 35.1108 80.7923 35.5217 79.4956 35.5217C78.1721 35.5217 77.0428 35.01 76.1071 33.986C75.1714 32.9627 74.7035 31.6972 74.7035 30.189C74.7035 28.694 75.1714 27.435 76.1071 26.4117C77.056 25.3746 78.1859 24.8564 79.4956 24.8564C80.7923 24.8564 81.7883 25.2679 82.4832 26.0891ZM77.7114 30.1896C77.7114 30.9434 77.9319 31.5434 78.3729 31.987C78.8139 32.4313 79.3887 32.6538 80.0973 32.6538C80.806 32.6538 81.3808 32.4313 81.8218 31.987C82.2628 31.5428 82.4832 30.9434 82.4832 30.1896C82.4832 29.4352 82.2628 28.8359 81.8218 28.3916C81.3808 27.9473 80.806 27.7249 80.0973 27.7249C79.3887 27.7249 78.8139 27.9473 78.3729 28.3916C77.9319 28.8359 77.7114 29.4352 77.7114 30.1896ZM90.7057 35.239H87.6978V20.494H90.7057V35.239ZM102.712 31.4014H95.5935C95.9281 32.3437 96.7299 32.8154 97.9997 32.8154C98.8153 32.8154 99.457 32.5589 99.9249 32.0479L102.331 33.4416C101.355 34.8287 99.898 35.5222 97.9596 35.5222C96.289 35.5222 94.9386 35.0171 93.9096 34.0075C92.907 32.9973 92.4057 31.7246 92.4057 30.1896C92.4057 28.6808 92.8998 27.4154 93.8893 26.392C94.892 25.3687 96.1754 24.857 97.7392 24.857C99.1965 24.857 100.407 25.3687 101.369 26.392C102.345 27.3885 102.832 28.6546 102.832 30.1896C102.832 30.6202 102.792 31.0245 102.712 31.4014ZM95.5337 29.1388H99.8448C99.5508 28.0755 98.8422 27.5436 97.7194 27.5436C96.5561 27.5436 95.8277 28.0755 95.5337 29.1388ZM91.8972 14.5865C91.9044 12.5905 93.5236 10.9929 95.5355 11C97.5545 11.0072 99.1523 12.6012 99.1523 14.6074C99.1533 15.0819 99.0605 15.5519 98.8793 15.9905C98.698 16.4292 98.4318 16.8278 98.096 17.1636C97.7601 17.4994 97.3612 17.7658 96.922 17.9475C96.4829 18.1292 96.0121 18.2227 95.5367 18.2225C95.0576 18.2258 94.5826 18.1339 94.1394 17.9523C93.6962 17.7706 93.2936 17.5029 92.9551 17.1645C92.6165 16.8262 92.3487 16.424 92.1673 15.9814C91.9859 15.5388 91.8945 15.0647 91.8984 14.5865H91.8972ZM80.7301 44.9638C79.3582 44.9697 78.2725 43.9088 78.2618 42.5545C78.251 41.1715 79.3331 40.0832 80.7182 40.0868C82.0745 40.0898 83.1722 41.1751 83.177 42.5193C83.1817 43.8599 82.0829 44.9584 80.7301 44.9638ZM94.3034 47.8603C94.3046 46.6795 95.2684 45.7265 96.4413 45.7432C96.9997 45.7484 97.5332 45.974 97.9254 46.3708C98.3175 46.7675 98.5363 47.303 98.5339 47.8603C98.5361 48.14 98.4821 48.4173 98.3751 48.6758C98.2682 48.9343 98.1104 49.1688 97.9111 49.3654C97.7118 49.562 97.475 49.7168 97.2148 49.8206C96.9546 49.9244 96.6761 49.975 96.3959 49.9696C96.1195 49.9691 95.8459 49.9141 95.5909 49.8077C95.3358 49.7013 95.1044 49.5455 94.9099 49.3495C94.7154 49.1534 94.5617 48.9209 94.4576 48.6654C94.3535 48.4098 94.3011 48.1362 94.3034 47.8603ZM108.098 24.7359C108.327 24.7345 108.553 24.7785 108.764 24.8653C108.975 24.9521 109.166 25.0801 109.327 25.2417C109.488 25.4032 109.615 25.5952 109.701 25.8063C109.787 26.0175 109.829 26.2435 109.826 26.4713C109.828 26.6992 109.785 26.9252 109.699 27.1363C109.612 27.3473 109.485 27.5393 109.324 27.701C109.163 27.8628 108.972 27.9912 108.761 28.0788C108.55 28.1664 108.324 28.2115 108.096 28.2115C107.121 28.2175 106.32 27.4166 106.335 26.4475C106.342 25.9878 106.532 25.5498 106.862 25.2293C107.193 24.9088 107.637 24.7319 108.097 24.7371L108.098 24.7359ZM82.0793 18.6352C81.3103 18.64 80.6775 18.0257 80.668 17.2642C80.6584 16.5139 81.2876 15.8663 82.0459 15.8484C82.8167 15.8305 83.4817 16.4811 83.4793 17.2522C83.4769 18.0156 82.8537 18.6298 82.0793 18.6352Z" fill="#17191A"></path>
</svg>
