<?xml version="1.0" encoding="UTF-8"?>
<svg xmlns="http://www.w3.org/2000/svg" width="25" height="25" viewBox="0 0 25 25" fill="none">
  <g clip-path="url(#clip0_5002_13445)">
    <mask id="mask0_5002_13445" style="mask-type:luminance" maskUnits="userSpaceOnUse" x="0" y="0" width="25" height="25">
      <path d="M12.6666 24.6318C19.294 24.6318 24.6666 19.2593 24.6666 12.6318C24.6666 6.00442 19.294 0.631836 12.6666 0.631836C6.03921 0.631836 0.666626 6.00442 0.666626 12.6318C0.666626 19.2593 6.03921 24.6318 12.6666 24.6318Z" fill="white"></path>
    </mask>
    <g mask="url(#mask0_5002_13445)">
      <path d="M-3.36536 0.631836H28.6986V24.6318H-3.36536V0.631836Z" fill="#ED2224"></path>
    </g>
    <mask id="mask1_5002_13445" style="mask-type:luminance" maskUnits="userSpaceOnUse" x="0" y="0" width="25" height="25">
      <path d="M12.6666 24.6318C19.294 24.6318 24.6666 19.2593 24.6666 12.6318C24.6666 6.00442 19.294 0.631836 12.6666 0.631836C6.03921 0.631836 0.666626 6.00442 0.666626 12.6318C0.666626 19.2593 6.03921 24.6318 12.6666 24.6318Z" fill="white"></path>
    </mask>
    <g mask="url(#mask1_5002_13445)">
      <path d="M4.65063 0.631836H20.6826V24.6318H4.65063V0.631836Z" fill="white"></path>
    </g>
    <mask id="mask2_5002_13445" style="mask-type:luminance" maskUnits="userSpaceOnUse" x="0" y="0" width="25" height="25">
      <path d="M12.6666 24.6318C19.294 24.6318 24.6666 19.2593 24.6666 12.6318C24.6666 6.00442 19.294 0.631836 12.6666 0.631836C6.03921 0.631836 0.666626 6.00442 0.666626 12.6318C0.666626 19.2593 6.03921 24.6318 12.6666 24.6318Z" fill="white"></path>
    </mask>
    <g mask="url(#mask2_5002_13445)">
      <path d="M12.6663 6.14307L11.5726 8.18307C11.4484 8.40495 11.2261 8.38426 11.0038 8.26042L10.2119 7.85043L10.802 10.984C10.9261 11.5564 10.528 11.5564 10.3313 11.3089L8.94936 9.76167L8.72499 10.5475C8.69919 10.6507 8.58535 10.759 8.41469 10.7331L6.66713 10.3657L7.1262 12.0345C7.22451 12.4058 7.30107 12.5596 7.02691 12.6575L6.40411 12.9502L9.41249 15.3937C9.53143 15.4862 9.59155 15.6525 9.54934 15.803L9.28596 16.667C10.3218 16.5476 11.2499 16.368 12.2862 16.2573C12.3776 16.2476 12.5309 16.3985 12.5303 16.5045L12.393 19.6701H12.8966L12.8172 16.5114C12.8166 16.4054 12.9557 16.2476 13.0471 16.2573C14.0834 16.368 15.0115 16.5476 16.0473 16.667L15.7839 15.803C15.7416 15.6525 15.8018 15.4863 15.9208 15.3937L18.9291 12.9502L18.3063 12.6575C18.0322 12.5596 18.1087 12.4059 18.207 12.0345L18.6661 10.3657L16.9185 10.7331C16.7479 10.759 16.634 10.6507 16.6082 10.5475L16.3839 9.76167L15.0019 11.3089C14.8053 11.5564 14.4071 11.5564 14.5313 10.984L15.1214 7.8504L14.3295 8.26039C14.1071 8.38426 13.8848 8.40492 13.7607 8.18304" fill="#ED2224"></path>
    </g>
  </g>
  <defs>
    <clipPath id="clip0_5002_13445">
      <rect width="24" height="24" fill="white" transform="translate(0.666626 0.631836)"></rect>
    </clipPath>
  </defs>
</svg>
