<?xml version="1.0" encoding="UTF-8"?>
<svg xmlns="http://www.w3.org/2000/svg" width="25" height="24" viewBox="0 0 25 24" fill="none">
  <g clip-path="url(#clip0_1358_9938)">
    <path d="M21.2546 7.6169C19.2551 6.04639 17.2856 4.47739 15.2936 2.90688C14.4296 2.24237 14.0096 1.39787 14.1851 0.305861C14.2151 0.0343597 14.0636 -0.0571408 13.7651 0.0343597C13.0781 0.244361 12.5111 0.638863 12.1826 1.27337C11.7326 2.17937 11.0201 2.51237 10.1201 2.48237C8.77455 2.42087 7.94054 3.14838 7.22354 4.17738C6.44354 5.26939 6.06103 6.5384 5.76253 7.80891C5.43403 9.17091 5.28103 10.5344 5.22703 11.9204C5.16553 12.9809 5.19703 14.0099 5.16553 15.0644C5.16553 15.1259 5.16553 15.1574 5.16553 15.1874V18H18.3671V15.879C18.3671 15.879 18.4736 14.9864 17.8136 14.3324C17.1536 13.6784 16.4531 13.0664 16.4531 13.0664C16.1156 12.7904 15.8081 12.4754 15.5426 12.1319L13.1081 8.98191C13.2596 9.10491 13.4066 9.22191 13.5581 9.34491C14.3066 9.91792 15.1106 10.1594 16.0346 9.91792C16.5701 9.79492 17.1116 9.85642 17.5871 10.1579C17.8526 10.3349 18.1466 10.4879 18.4421 10.6409C19.1366 11.0009 19.9916 10.8359 20.4911 10.2359C20.7986 9.86692 21.1061 9.49792 21.4136 9.13491C21.8051 8.67141 21.7331 7.99191 21.2546 7.6169Z" fill="#9F367B"></path>
    <path d="M20.0876 22.9155L18.5876 19.914C18.4601 19.6605 18.2006 19.5 17.9171 19.5H5.91699C5.63349 19.5 5.37399 19.6605 5.24648 19.914L3.74648 22.914C3.62948 23.1465 3.64298 23.4225 3.77948 23.643C3.91598 23.8635 4.15748 24 4.41698 24H19.4171C19.6766 24 19.9181 23.865 20.0561 23.6445C20.1926 23.424 20.2046 23.148 20.0876 22.9155Z" fill="#9F367B"></path>
  </g>
  <defs>
    <clipPath id="clip0_1358_9938">
      <rect width="24" height="24" fill="white" transform="translate(0.666626)"></rect>
    </clipPath>
  </defs>
</svg>
