<?xml version="1.0" encoding="UTF-8"?>
<svg xmlns="http://www.w3.org/2000/svg" width="35" height="35" viewBox="0 0 35 35" fill="none">
  <path d="M17.5 18.6116C22.6315 18.6116 26.8058 14.4373 26.8058 9.30578C26.8058 4.1743 22.6315 0 17.5 0C12.3685 0 8.19421 4.1743 8.19421 9.30578C8.19421 14.4373 12.3685 18.6116 17.5 18.6116ZM18.534 10.3398H16.466C14.7555 10.3398 13.3641 8.9483 13.3641 7.23783C13.3641 5.52736 14.7555 4.1359 16.466 4.1359V2.06795H18.534V4.1359C20.2444 4.1359 21.6359 5.52736 21.6359 7.23783H19.5679C19.5679 6.66735 19.1044 6.20385 18.534 6.20385H16.466C15.8955 6.20385 15.432 6.66735 15.432 7.23783C15.432 7.80831 15.8955 8.27181 16.466 8.27181H18.534C20.2444 8.27181 21.6359 9.66326 21.6359 11.3737C21.6359 13.0842 20.2444 14.4757 18.534 14.4757V16.5436H16.466V14.4757C14.7555 14.4757 13.3641 13.0842 13.3641 11.3737H15.432C15.432 11.9442 15.8955 12.4077 16.466 12.4077H18.534C19.1044 12.4077 19.5679 11.9442 19.5679 11.3737C19.5679 10.8033 19.1044 10.3398 18.534 10.3398Z" fill="#9F367B"></path>
  <path d="M30.3753 19.2039C29.7999 17.6514 28.6378 16.3871 27.1391 15.6832C25.6405 14.9793 23.9254 14.8922 22.3632 15.4407C21.2733 15.8175 20.3096 16.4897 19.5796 17.3824H15.4203C14.6901 16.49 13.7265 15.8178 12.6368 15.4407C11.0747 14.8924 9.3597 14.9796 7.86125 15.6835C6.36281 16.3874 5.20076 17.6516 4.62538 19.2039C2.76022 24.3789 2.41706 30.0058 3.79046 32.8874C3.9701 33.3294 4.23761 33.7302 4.57679 34.0657C4.91596 34.4012 5.31974 34.6643 5.76363 34.8391C6.07447 34.9469 6.4013 35.0013 6.73029 35C8.73563 35 11.1262 33.085 13.353 29.6381H21.647C24.2459 33.6557 27.0663 35.5936 29.2363 34.8391C29.6802 34.6643 30.084 34.4012 30.4231 34.0657C30.7623 33.7302 31.0298 33.3294 31.2095 32.8874C32.5829 30.0058 32.2397 24.3789 30.3753 19.2039ZM12.1381 22.7443H10.9891V23.8933C10.9891 24.0964 10.9084 24.2913 10.7648 24.4349C10.6211 24.5786 10.4263 24.6593 10.2232 24.6593C10.02 24.6593 9.82518 24.5786 9.68153 24.4349C9.53788 24.2913 9.45718 24.0964 9.45718 23.8933V22.7443H8.30821C8.10506 22.7443 7.91023 22.6636 7.76658 22.52C7.62293 22.3763 7.54223 22.1815 7.54223 21.9783C7.54223 21.7752 7.62293 21.5803 7.76658 21.4367C7.91023 21.293 8.10506 21.2123 8.30821 21.2123H9.45718V20.0634C9.45718 19.8602 9.53788 19.6654 9.68153 19.5217C9.82518 19.3781 10.02 19.2974 10.2232 19.2974C10.4263 19.2974 10.6211 19.3781 10.7648 19.5217C10.9084 19.6654 10.9891 19.8602 10.9891 20.0634V21.2123H12.1381C12.3413 21.2123 12.5361 21.293 12.6797 21.4367C12.8234 21.5803 12.9041 21.7752 12.9041 21.9783C12.9041 22.1815 12.8234 22.3763 12.6797 22.52C12.5361 22.6636 12.3413 22.7443 12.1381 22.7443ZM18.2659 26.5742H16.734C16.5308 26.5742 16.336 26.4935 16.1924 26.3499C16.0487 26.2062 15.968 26.0114 15.968 25.8082C15.968 25.6051 16.0487 25.4102 16.1924 25.2666C16.336 25.1229 16.5308 25.0422 16.734 25.0422H18.2659C18.4691 25.0422 18.6639 25.1229 18.8076 25.2666C18.9512 25.4102 19.0319 25.6051 19.0319 25.8082C19.0319 26.0114 18.9512 26.2062 18.8076 26.3499C18.6639 26.4935 18.4691 26.5742 18.2659 26.5742ZM22.8618 22.7443C22.7103 22.7443 22.5622 22.6994 22.4363 22.6152C22.3103 22.531 22.2121 22.4114 22.1541 22.2715C22.0962 22.1315 22.081 21.9775 22.1106 21.8289C22.1401 21.6803 22.2131 21.5438 22.3202 21.4367C22.4273 21.3296 22.5638 21.2566 22.7124 21.2271C22.861 21.1975 23.015 21.2127 23.1549 21.2707C23.2949 21.3286 23.4145 21.4268 23.4987 21.5528C23.5829 21.6787 23.6278 21.8268 23.6278 21.9783C23.6278 22.1815 23.5471 22.3763 23.4035 22.52C23.2598 22.6636 23.065 22.7443 22.8618 22.7443ZM24.7768 24.6593C24.6253 24.6593 24.4772 24.6143 24.3512 24.5302C24.2253 24.446 24.1271 24.3264 24.0691 24.1864C24.0111 24.0464 23.996 23.8924 24.0255 23.7438C24.0551 23.5953 24.128 23.4588 24.2351 23.3516C24.3423 23.2445 24.4787 23.1716 24.6273 23.142C24.7759 23.1125 24.9299 23.1276 25.0699 23.1856C25.2099 23.2436 25.3295 23.3418 25.4137 23.4677C25.4978 23.5937 25.5427 23.7418 25.5427 23.8933C25.5427 24.0964 25.462 24.2913 25.3184 24.4349C25.1748 24.5786 24.9799 24.6593 24.7768 24.6593ZM24.7768 20.8294C24.6253 20.8294 24.4772 20.7844 24.3512 20.7003C24.2253 20.6161 24.1271 20.4965 24.0691 20.3565C24.0111 20.2165 23.996 20.0625 24.0255 19.9139C24.0551 19.7654 24.128 19.6289 24.2351 19.5217C24.3423 19.4146 24.4787 19.3417 24.6273 19.3121C24.7759 19.2826 24.9299 19.2977 25.0699 19.3557C25.2099 19.4137 25.3295 19.5119 25.4137 19.6378C25.4978 19.7638 25.5427 19.9119 25.5427 20.0634C25.5427 20.2665 25.462 20.4614 25.3184 20.605C25.1748 20.7487 24.9799 20.8294 24.7768 20.8294ZM26.6917 22.7443C26.5402 22.7443 26.3921 22.6994 26.2662 22.6152C26.1402 22.531 26.042 22.4114 25.984 22.2715C25.9261 22.1315 25.9109 21.9775 25.9405 21.8289C25.97 21.6803 26.043 21.5438 26.1501 21.4367C26.2572 21.3296 26.3937 21.2566 26.5423 21.2271C26.6909 21.1975 26.8449 21.2127 26.9848 21.2707C27.1248 21.3286 27.2444 21.4268 27.3286 21.5528C27.4128 21.6787 27.4577 21.8268 27.4577 21.9783C27.4577 22.1815 27.377 22.3763 27.2333 22.52C27.0897 22.6636 26.8949 22.7443 26.6917 22.7443Z" fill="#9F367B"></path>
</svg>
