<?xml version="1.0" encoding="UTF-8"?>
<svg xmlns="http://www.w3.org/2000/svg" width="25" height="25" viewBox="0 0 25 25" fill="none">
  <path d="M1.60382 16.9235C3.29915 21.4935 7.69715 24.7502 12.8572 24.7502C18.0172 24.7502 22.4152 21.4935 24.1105 16.9235L12.8572 15.8809L1.60382 16.9235Z" fill="#FFDA44"></path>
  <path d="M12.8572 0.75C7.69715 0.75 3.29915 4.00667 1.60382 8.57667L12.8572 9.61933L24.1105 8.576C22.4152 4.00667 18.0172 0.75 12.8572 0.75Z" fill="#3D3D3D"></path>
  <path d="M1.60385 8.57684C1.1087 9.91244 0.855843 11.3257 0.857184 12.7502C0.855764 14.1748 1.10862 15.5884 1.60385 16.9242H24.1105C24.6058 15.5884 24.8586 14.1748 24.8572 12.7502C24.8586 11.3255 24.6058 9.91204 24.1105 8.57617L1.60385 8.57684Z" fill="#D80027"></path>
</svg>
