<?xml version="1.0" encoding="UTF-8"?>
<svg xmlns="http://www.w3.org/2000/svg" width="24" height="24" viewBox="0 0 24 24" fill="none">
  <g clip-path="url(#clip0_4823_79806)">
    <path d="M12 0C11.7432 0 11.4882 0.0080625 11.2354 0.0239531L1.24467 6.67205C0.447937 8.27733 0 10.0864 0 12C0 15.5098 1.5068 18.6677 3.90886 20.862C3.90886 20.862 7.81964 23.552 12 23.552C17.5934 23.552 23.4118 18.6274 23.4118 12C23.4118 4.14192 15.9352 0.660141 15.9352 0.660141C14.7025 0.232406 13.3784 0 12 0Z" fill="#008CDF"></path>
    <path d="M23.8824 10.3145L20.9733 9.98242C20.9733 16.6098 15.6007 21.9824 8.97328 21.9824C7.1633 21.9824 5.44777 21.5798 3.90881 20.8622C4.8405 21.7134 5.90691 22.4195 7.07231 22.945L7.77891 22.9057L8.67492 23.5334C9.73078 23.8373 10.8464 24.0002 12 24.0002C18.6274 24.0002 24 18.6276 24 12.0002C24 11.428 23.9599 10.8652 23.8824 10.3145Z" fill="#008CDF"></path>
    <path d="M17.0771 1.12356C16.7065 0.950313 16.3254 0.795438 15.9352 0.660156L14.8739 1.59353C14.5833 1.84206 14.5137 2.27078 14.7275 2.60284C14.9331 2.92206 15.3486 3.03344 15.6984 2.88573L15.9131 2.79498C16.1769 2.68361 16.4859 2.72392 16.6998 2.91438C17.0777 3.25103 17.0118 3.84602 16.5878 4.09694L14.0955 5.57167C13.6087 5.85972 13.2995 6.38336 13.3096 6.94891C13.3201 7.53634 13.6493 8.0148 14.3108 8.07574C15.6796 8.20183 15.4826 6.75152 16.2866 6.75152H19.044C19.4637 6.75152 19.8277 7.06534 19.8641 7.48352C19.9055 7.95995 19.5311 8.35947 19.0632 8.35947H15.7567C14.4706 8.35947 13.349 9.35055 13.3104 10.6361C13.2705 11.9663 14.3369 13.0572 15.6582 13.0572H15.9945C16.6358 13.0572 17.1558 13.5771 17.1558 14.2185V18.3453C17.1558 18.4678 17.1773 18.5886 17.2177 18.7013L18.1889 18.6804L21.2126 13.763L21.6013 10.9448L22.5871 9.51747C22.5871 9.51752 20.6815 2.80839 17.0771 1.12356Z" fill="#98DB7C"></path>
    <path d="M23.8825 10.3142C23.3095 6.23446 20.6763 2.80986 17.0771 1.12354C19.469 3.31719 20.9733 6.48088 20.9733 9.98216C20.9733 13.4185 19.5326 16.5136 17.2178 18.7012C17.3597 19.1067 17.7621 19.3881 18.2297 19.3213C18.528 19.2787 18.7812 19.0781 18.9298 18.816L21.7938 13.7659C22.0474 13.3189 22.1126 12.7893 21.9754 12.294L21.7533 11.4931C21.6803 11.2299 21.8956 10.9759 22.1672 11.0047L22.3251 11.0215C22.7502 11.0666 23.1749 10.9324 23.497 10.6512L23.8825 10.3142Z" fill="#98DB7C"></path>
    <path d="M11.8879 1.06089L11.2353 0.0239258C6.84614 0.29927 3.10008 2.93144 1.24463 6.67202L2.00082 11.896C2.08566 12.4823 2.43441 12.9975 2.94727 13.2942C3.2423 13.4648 3.37139 13.8233 3.25294 14.1428L2.99475 14.8393C2.76244 15.4661 2.95852 16.1711 3.48099 16.5879L4.17047 17.1379C4.4063 17.3261 4.59493 17.5668 4.72121 17.8408L6.51282 21.7286L7.56 22.4676L8.29946 21.9634L8.03129 20.8428C7.88002 20.2105 7.96107 19.5451 8.25961 18.9677L9.42249 16.7187C9.74279 16.0993 9.44879 15.3393 8.79497 15.0966L7.83961 14.7421C7.53614 14.6295 7.33482 14.3399 7.33482 14.0163V13.9417C7.33482 13.5141 6.98818 13.1675 6.56063 13.1675H4.8998C4.49279 13.1675 4.09299 13.0606 3.7403 12.8574L3.33516 12.624C3.02743 12.4467 2.81808 12.138 2.76727 11.7865L2.74139 11.6074C2.67624 11.1569 2.88033 10.7099 3.26335 10.464L3.50143 10.3111C3.78985 10.126 4.16569 10.1524 4.42528 10.3762L4.63749 10.5592C4.89586 10.7819 5.29847 10.6499 5.37479 10.3174L5.6011 9.33128C5.72171 8.80591 6.10683 8.38103 6.61796 8.20961L8.28821 7.64946C8.76521 7.48947 8.96532 6.92421 8.69522 6.4998L7.93594 5.30669C7.7273 4.97885 7.30796 4.85646 6.95569 5.02061L6.32864 5.31288C6.00432 5.4641 5.60021 5.39927 5.3813 5.11619C5.09888 4.75103 5.21236 4.22641 5.6108 4.00769L7.18669 3.14247C7.70944 2.85546 8.36461 3.01103 8.70249 3.50243L8.84893 3.71538C9.06544 4.03052 9.42333 4.21872 9.80569 4.21872H10.5148C10.9849 4.21872 11.4086 3.93532 11.5881 3.50088L12.0101 2.47943C12.2021 2.01475 12.1565 1.48586 11.8879 1.06089Z" fill="#98DB7C"></path>
    <path d="M7.07232 22.9447C7.58832 23.1775 8.12311 23.3742 8.67488 23.5331L8.29941 21.9633C7.68947 21.9294 7.09496 21.8504 6.51282 21.7285L7.07232 22.9447Z" fill="#98DB7C"></path>
  </g>
  <defs>
    <clipPath id="clip0_4823_79806">
      <rect width="24" height="24" fill="white"></rect>
    </clipPath>
  </defs>
</svg>
