<?xml version="1.0" encoding="UTF-8"?>
<svg xmlns="http://www.w3.org/2000/svg" width="36" height="36" viewBox="0 0 36 36" fill="none">
  <g clip-path="url(#clip0_713_2119)">
    <path d="M24.1126 7.82813C24.3314 7.82813 24.6595 7.82813 24.8782 7.82813C25.2064 7.82813 25.2064 7.60938 25.2064 7.39063C25.2064 7.28125 25.097 7.0625 24.9876 7.0625C24.7689 7.0625 24.6595 7.17188 24.4407 7.17188C24.5501 7.60938 24.3314 7.60938 24.1126 7.82813ZM24.1126 8.15625C23.7845 8.15625 23.4564 8.15625 23.2376 8.15625C23.1282 8.15625 23.0189 8.48438 23.0189 8.48438C23.1282 8.70313 23.2376 8.92188 23.4564 9.25C23.6751 8.92188 23.8939 8.59375 24.1126 8.15625ZM22.2532 4.98438C22.3626 4.65625 22.3626 4.4375 22.472 4.10938H22.5814C22.5814 4.21875 22.5814 4.32813 22.5814 4.4375C22.5814 4.54688 22.5814 4.65625 22.5814 4.65625C22.8001 4.76563 23.1282 4.98438 23.347 4.98438C25.6439 4.98438 27.8314 4.98438 30.1282 4.98438H30.4564C30.4564 5.09375 30.5657 5.3125 30.5657 5.42188H30.6751C30.6751 4.98438 30.7845 4.54688 30.7845 4H30.8939C30.8939 4.4375 31.0032 4.875 31.0032 5.3125C31.222 5.3125 31.222 5.20313 31.3314 5.20313C31.3314 5.3125 31.3314 5.42188 31.3314 5.53125C31.3314 5.64063 31.4407 5.75 31.5501 5.75C32.097 5.75 32.7532 5.85938 33.3001 5.75C33.7376 5.64063 34.0657 5.75 34.3939 5.64063C34.8314 5.64063 34.8314 5.64063 34.722 6.07813C33.9564 6.1875 33.3001 6.07813 32.5345 6.07813C31.7689 6.07813 31.0032 6.1875 30.2376 6.1875C30.2376 6.29688 30.2376 6.40625 30.2376 6.51563C29.472 6.51563 28.7064 6.51563 27.9407 6.51563C27.6126 6.51563 27.1751 6.625 26.847 6.625V6.73438C26.6282 6.95313 26.5189 7.28125 26.3001 7.39063C26.1907 7.60938 26.3001 7.9375 26.3001 8.15625C26.3001 8.59375 26.5189 9.03125 26.5189 9.46875C25.8626 9.35938 25.8626 9.90625 25.7532 10.3438C25.6439 10.6719 25.6439 11.1094 25.4251 11.3281C25.097 11.7656 24.5501 11.9844 24.1126 12.3125C24.0032 12.4219 23.7845 12.3125 23.5657 12.3125C23.347 12.3125 23.1282 12.3125 23.0189 12.2031C22.3626 11.9844 21.8157 11.6563 21.1595 11.3281C20.9407 11.2188 20.722 11.1094 20.6126 11C20.5032 11.2188 20.5032 11.5469 20.3939 11.7656C20.8314 11.875 21.1595 12.0938 21.1595 12.6406C21.1595 12.9688 21.1595 13.2969 21.1595 13.625C21.1595 14.1719 21.1595 14.7188 21.0501 15.2656C20.9407 15.7031 20.722 16.0313 20.5032 16.4688C20.5032 16.5781 20.2845 16.5781 20.1751 16.5781C20.0657 16.5781 19.847 16.4688 19.7376 16.3594C19.5189 16.5781 19.5189 16.7969 19.5189 17.125C19.6282 17.6719 19.847 18 20.1751 18.3281C21.0501 19.3125 21.597 20.5156 22.1439 21.7188C22.2532 22.1563 22.472 22.4844 22.5814 22.9219C22.5814 23.0313 22.8001 23.1406 22.8001 23.25L22.9095 23.3594C23.0189 23.9063 23.1282 24.3438 23.1282 24.8906C23.1282 25.875 22.9095 26.75 22.8001 27.7344C22.8001 28.0625 22.9095 28.3906 22.9095 28.7188C22.9095 29.0469 22.8001 29.4844 22.8001 29.8125L22.6907 29.9219C22.6907 30.5781 22.6907 31.2344 22.6907 31.8906C22.6907 32 22.8001 32.1094 22.9095 32.2188C23.0189 32.3281 23.1282 32.5469 23.347 32.6563C23.6751 33.0938 24.1126 33.5313 24.6595 33.6406C24.8782 33.6406 24.9876 33.8594 25.2064 33.8594C25.4251 33.9688 25.4251 34.1875 25.4251 34.5156C25.3157 34.7344 25.2064 34.7344 24.9876 34.7344C24.222 34.7344 23.347 34.7344 22.5814 34.625C21.9251 34.4063 21.3782 34.2969 20.8314 34.4063C20.722 34.4063 20.6126 34.4063 20.5032 34.4063C20.2845 34.4063 20.0657 34.2969 20.1751 33.9688C20.2845 33.4219 20.5032 32.875 20.6126 32.3281C20.722 32 20.6126 31.5625 20.6126 31.125C20.6126 31.0156 20.6126 30.9063 20.6126 30.7969C20.6126 30.4688 20.6126 30.25 20.3939 29.9219C20.1751 29.5938 20.1751 29.1563 20.0657 28.7188C19.9564 28.0625 19.9564 27.5156 19.847 26.8594C19.847 26.5313 19.847 26.3125 20.0657 26.0938C20.2845 25.875 20.2845 24.7813 19.9564 24.4531C19.847 24.5625 19.7376 24.5625 19.6282 24.5625C19.0814 24.6719 18.8626 24.4531 18.5345 24.0156C18.097 23.3594 17.6595 22.7031 17.222 22.0469C17.1126 21.9375 16.8939 21.7188 16.7845 21.7188C16.347 21.7188 16.2376 21.5 16.0189 21.1719C15.9095 21.0625 15.9095 20.9531 15.8001 20.7344C15.6907 21.2813 15.472 21.6094 15.1439 21.9375C15.0345 22.1563 14.9251 22.375 14.8157 22.5938C14.597 23.25 14.2689 23.9063 14.1595 24.5625C14.1595 24.8906 13.9407 25.1094 13.722 25.2188H13.6126C13.3939 25.9844 12.6282 26.3125 12.4095 27.0781V27.1875C12.6282 27.7344 12.4095 28.1719 12.1907 28.6094C11.8626 29.2656 11.6439 30.0313 11.3157 30.6875C11.3157 30.7969 11.2064 30.9063 11.097 31.0156C10.8782 31.125 10.7689 31.2344 10.6595 31.4531C10.222 32.2188 10.222 33.0938 10.222 33.9688C10.222 34.0781 10.3314 34.1875 10.3314 34.2969C10.3314 34.625 10.4407 34.8438 10.4407 35.1719L10.3314 35.2813C9.56574 35.3906 8.80011 35.5 8.14386 35.1719C8.03449 35.1719 7.92511 35.0625 7.92511 34.9531C7.70636 34.625 7.70636 34.0781 7.81574 33.6406C8.03449 32.875 8.25324 32 8.47199 31.2344C8.47199 31.125 8.47199 31.0156 8.47199 31.0156C8.03449 30.4688 8.25324 29.9219 8.58136 29.375C8.58136 29.1563 8.69074 29.0469 8.80011 28.9375C8.90949 28.6094 9.01887 28.2813 9.01887 28.0625C9.12824 27.8438 9.12824 27.625 9.23762 27.4063C9.56574 26.8594 9.89387 26.3125 10.222 25.875C10.4407 25.4375 10.7689 25 10.7689 24.5625C10.6595 23.25 10.9876 22.0469 11.2064 20.8438V20.7344C10.8782 20.5156 11.097 20.1875 10.8782 19.8594C10.7689 19.75 10.9876 19.5313 10.9876 19.3125C10.5501 19.0938 10.8782 18.7656 10.8782 18.5469C10.8782 18.4375 11.097 18.3281 11.2064 18.2188H11.3157C11.2064 17.5625 11.2064 16.9063 11.097 16.25C11.097 15.8125 10.9876 15.4844 10.9876 15.0469C10.9876 14.6094 11.3157 14.3906 11.8626 14.2813C11.5345 14.1719 11.2064 14.1719 10.8782 14.0625C10.6595 14.0625 10.5501 13.9531 10.5501 13.7344C10.5501 13.5156 10.6595 13.2969 10.6595 12.9688C10.7689 12.3125 10.7689 11.6563 10.8782 10.8906C10.8782 10.4531 11.097 10.3438 11.4251 10.3438C11.6439 10.3438 11.7532 10.3438 11.972 10.3438C12.3001 10.3438 12.4095 10.2344 12.3001 9.79688C12.0814 8.48438 12.3001 7.17188 12.9564 5.96875C13.5032 5.09375 14.1595 4.4375 15.2532 4.54688C15.472 4.54688 15.6907 4.65625 16.0189 4.76563C16.1282 4.76563 16.2376 4.65625 16.1282 4.32813C15.8001 3.23438 16.0189 2.14063 16.7845 1.26563C17.5501 0.390625 18.972 0.281249 19.9564 0.9375C20.0657 1.04688 20.1751 1.04688 20.2845 1.15625C21.2689 1.48438 21.1595 2.35938 21.2689 3.01563C21.2689 3.125 21.2689 3.23438 21.2689 3.34375C21.4876 3.78125 21.2689 4.10938 20.8314 4.10938C20.3939 4.21875 20.5032 4.4375 20.5032 4.76563C20.5032 4.875 20.5032 5.09375 20.6126 5.20313C21.1595 5.20313 21.7064 5.09375 22.2532 4.98438Z" fill="#9F367B"></path>
  </g>
  <defs>
    <clipPath id="clip0_713_2119">
      <rect width="35" height="35" fill="white" transform="translate(0.0499878 0.5)"></rect>
    </clipPath>
  </defs>
</svg>
