<?xml version="1.0" encoding="UTF-8"?>
<svg xmlns="http://www.w3.org/2000/svg" width="36" height="36" viewBox="0 0 36 36" fill="none">
  <g clip-path="url(#clip0_713_2432)">
    <path fill-rule="evenodd" clip-rule="evenodd" d="M29.2875 4.32812L26.4437 7.60938C24.1469 5.85938 21.4125 4.875 18.35 4.875C15.2875 4.875 12.4437 5.85938 10.2562 7.60938C9.38123 6.51562 7.95935 4.875 7.41248 4.32812C10.475 1.92188 14.1937 0.5 18.35 0.5C22.5062 0.5 26.225 1.92188 29.2875 4.32812ZM29.725 24.5625C30.8187 22.5938 31.475 20.4062 31.475 18C31.475 14.2812 29.9437 10.8906 27.3187 8.48438L30.1625 5.20312C33.6625 8.375 35.85 12.9688 35.85 18C35.85 27.625 27.975 35.5 18.35 35.5C8.72498 35.5 0.849976 27.625 0.849976 18C0.849976 12.9688 3.03748 8.375 6.4281 5.20312L9.27185 8.48438C6.75623 10.8906 5.22498 14.2812 5.22498 18C5.22498 20.4062 5.88123 22.7031 6.97498 24.5625L14.4125 17.2344L17.6937 10.125V21.2812L10.3656 28.3906C12.5531 30.0312 15.2875 31.125 18.35 31.125C21.4125 31.125 24.2562 30.0312 26.5531 28.2812L19.1156 21.2812V10.2344L22.5062 17.5625L29.725 24.5625Z" fill="#9F367B"></path>
  </g>
  <defs>
    <clipPath id="clip0_713_2432">
      <rect width="35" height="35" fill="white" transform="translate(0.849976 0.5)"></rect>
    </clipPath>
  </defs>
</svg>
