<?xml version="1.0" encoding="UTF-8"?>
<svg xmlns="http://www.w3.org/2000/svg" width="36" height="36" viewBox="0 0 36 36" fill="none">
  <path d="M3.69671 4.96247C3.51051 4.73077 3.19691 4.64117 2.91831 4.73987C2.63761 4.83787 2.45001 5.10247 2.45001 5.39997V18C2.45001 18.1624 2.50671 18.3199 2.60961 18.4452L12.4096 30.3452C12.5426 30.5062 12.7407 30.6 12.95 30.6H22.75C23.0188 30.6 23.2645 30.4453 23.3807 30.2038C23.4976 29.9609 23.4647 29.6732 23.296 29.4625L3.69671 4.96247ZM32.7852 5.44127C32.508 5.33907 32.1958 5.42727 32.0082 5.65757L19.4082 21.0576C19.2367 21.2669 19.2017 21.556 19.3172 21.801C19.4334 22.0439 19.6798 22.2 19.95 22.2H29.75C29.9628 22.2 30.1637 22.1034 30.2967 21.9375L33.0967 18.4375C33.1961 18.3129 33.25 18.1596 33.25 18V6.09997C33.25 5.80387 33.0638 5.53997 32.7852 5.44127Z" fill="#9F367B"></path>
</svg>
