<?xml version="1.0" encoding="UTF-8"?>
<svg xmlns="http://www.w3.org/2000/svg" width="36" height="36" viewBox="0 0 36 36" fill="none">
  <path fill-rule="evenodd" clip-rule="evenodd" d="M17.6938 1.59832L17.7001 1.59375V1.60288C19.6297 3.003 26.3592 7.56686 32.6501 11.3213V17.2108C28.2376 14.7091 19.7088 9.08554 17.6938 7.5885C15.6788 9.08554 7.14993 14.7091 2.73749 17.2108V11.3213C9.02842 7.56686 15.7579 3.003 17.6875 1.60288V1.59375L17.6938 1.59832ZM17.6938 13.6791L17.7001 13.6745V13.6837C19.6297 15.0838 26.3592 19.6476 32.6501 23.4021V29.2915C32.646 29.2891 32.6418 29.2868 32.6377 29.2844V29.4355L32.2878 29.6472C28.5887 31.8878 24.4306 34.4062 17.6876 34.4062V28.5043C22.1116 28.5043 25.5466 27.4547 27.7432 26.3776L27.7787 26.3452C23.6506 23.7498 19.0956 20.7109 17.6938 19.6693C16.2911 20.7115 11.7315 23.7535 7.60157 26.3498L7.63183 26.3776C9.82858 27.4547 13.2636 28.5043 17.6876 28.5043V34.4062C10.9447 34.4062 6.78643 31.8878 3.08737 29.6472L2.73749 29.4355V29.2915V27.6485V23.4021C9.02842 19.6476 15.7579 15.0838 17.6875 13.6837V13.6745L17.6938 13.6791Z" fill="#9F367B"></path>
</svg>
