<?xml version="1.0" encoding="UTF-8"?>
<svg xmlns="http://www.w3.org/2000/svg" width="36" height="36" viewBox="0 0 36 36" fill="none">
  <g clip-path="url(#clip0_713_2363)">
    <path fill-rule="evenodd" clip-rule="evenodd" d="M16.8969 7.28125L16.6781 7.0625H13.5062L13.3969 7.28125L13.0687 7.0625H10.0062C9.2406 7.0625 9.6781 7.39062 9.6781 7.39062C11.7562 9.25 11.5375 10.3438 11.5375 10.5625C11.5375 10.6719 11.7562 10.7812 11.6469 10.8906C11.4281 11 11.6469 11.6562 11.5375 11.7656C11.4281 11.875 11.8656 12.2031 11.7562 12.5312C11.7562 12.8594 11.6469 12.8594 11.6469 12.8594C11.6469 12.8594 11.4281 25.3281 11.5375 25.6562C11.6469 25.9844 11.5375 26.3125 11.3187 26.6406C11.1 26.9688 11.3187 27.1875 11.3187 27.1875L10.8812 27.2969V27.625L9.34998 28.9375H24.6625C24.6625 28.9375 24.8812 28.5 24.9906 28.2812C25.1 28.0625 24.9906 27.9531 24.8812 27.7344C24.7719 27.5156 25.2094 27.4062 25.3187 27.2969C25.4281 27.1875 25.4281 27.0781 25.4281 26.9688C25.4281 26.75 25.2094 26.9688 25.2094 26.75C25.2094 26.5312 25.5375 26.5312 25.5375 26.5312C25.5375 26.5312 26.85 22.375 26.85 22.1562C26.85 21.9375 26.6312 22.1562 26.6312 22.1562C24.1156 24.7812 21.3812 25.4375 19.3031 25.4375L18.5375 25.6562L18.1 25.1094C18.1 25.1094 16.5687 25 15.8031 24.7812L15.6937 23.4688C15.6937 23.4688 15.3656 23.1406 15.3656 23.0312C15.3656 23.0312 15.6937 22.8125 15.6937 22.7031C15.6937 22.5938 15.5844 22.4844 15.3656 22.375C15.2562 22.2656 15.6937 22.1562 15.6937 21.9375C15.6937 21.7188 15.3656 21.6094 15.3656 21.3906C15.3656 21.1719 15.5844 20.8438 15.5844 20.8438V17.3438L15.3656 17.2344L15.5844 17.0156V10.0156C15.5844 8.92188 17.225 7.5 17.4437 7.39062C17.7719 7.28125 17.7719 7.0625 17.7719 7.0625H17.1156L16.8969 7.28125ZM2.78748 33.3125H33.4125V2.6875H2.78748V33.3125ZM0.599976 34.4062C0.599976 34.9531 1.14685 35.5 1.69373 35.5H34.5062C35.0531 35.5 35.6 34.9531 35.6 34.4062V1.59375C35.6 1.04688 35.0531 0.5 34.5062 0.5H1.69373C1.03748 0.5 0.599976 1.04688 0.599976 1.59375V34.4062Z" fill="#9F367B"></path>
  </g>
  <defs>
    <clipPath id="clip0_713_2363">
      <rect width="35" height="35" fill="white" transform="translate(0.599976 0.5)"></rect>
    </clipPath>
  </defs>
</svg>
