<?xml version="1.0" encoding="UTF-8"?>
<svg xmlns="http://www.w3.org/2000/svg" width="36" height="36" viewBox="0 0 36 36" fill="none">
  <g clip-path="url(#clip0_713_2245)">
    <path d="M18.3875 22.375C18.3875 22.375 18.4969 22.4844 18.6063 22.5938C18.825 22.8125 18.9344 22.8125 18.9344 23.0312V23.1406H18.825C18.7156 23.1406 18.7156 23.1406 18.7156 23.1406C18.7156 23.1406 18.6063 23.0312 18.4969 23.0312C18.2781 23.0312 18.2781 23.0312 17.95 23.0312C17.5125 23.0312 17.5125 23.0312 17.1844 23.1406C16.8563 23.25 16.8563 23.25 16.8563 23.7969C16.8563 24.4531 16.8563 24.5625 17.5125 24.5625C17.8406 24.5625 18.3875 24.5625 18.6063 24.5625C18.825 24.5625 18.9344 24.4531 19.0438 24.3438C19.0438 24.3438 19.0438 24.0156 19.0438 23.6875C19.0438 23.1406 19.0438 22.7031 18.9344 22.5938C18.825 22.4844 18.6063 22.375 18.3875 22.375ZM22.8719 18C22.9813 18 23.3094 18.3281 23.3094 18.4375L23.4188 18.5469V19.75C23.4188 20.4062 23.4188 20.9531 23.4188 20.9531C23.4188 20.9531 21.6688 21.2812 20.1375 21.5H20.0281L19.9188 21.7188L19.8094 21.9375V23.1406C19.8094 24.125 19.8094 24.3438 19.7 24.4531C19.7 24.5625 19.5906 24.5625 19.5906 24.5625C19.5906 24.5625 19.3719 24.5625 19.1531 24.5625H18.825L18.6063 24.6719C18.2781 24.7812 17.7313 25 17.6219 25.1094L17.5125 25.2188V27.9531V30.6875L17.4031 30.7969L17.2938 30.9062H16.9656C16.7469 30.9062 16.6375 30.9062 16.6375 30.9062C16.6375 30.9062 16.5281 30.9062 16.5281 31.0156V31.125H15.325V31.0156C15.2156 30.9062 15.1063 30.9062 14.9969 30.9062C14.8875 30.9062 14.8875 30.9062 14.8875 30.7969V30.6875C14.8875 30.5781 14.8875 30.5781 14.7781 30.5781H14.6688V30.4688C14.6688 30.3594 14.6688 30.3594 14.7781 30.25L14.8875 30.1406V19.6406L14.7781 19.5312H14.6688V19.0938H14.7781H14.8875V18.875C14.8875 18.6562 14.8875 18.6562 14.9969 18.6562C14.9969 18.6562 15.2156 18.5469 15.4344 18.5469L15.7625 18.3281H17.4031V18.4375C17.5125 18.7656 17.7313 18.9844 18.1688 19.0938C18.2781 19.0938 18.3875 19.0938 18.4969 19.0938C19.3719 18.9844 20.575 18.6562 21.45 18.2188C21.6688 18.1094 21.7781 18.1094 21.9969 18C22.325 18 22.7625 18 22.8719 18ZM16.6375 0.5C15.5438 0.609375 14.5594 0.71875 13.7938 0.9375C11.6063 1.59375 10.2938 2.90625 9.52814 4.875C9.41876 5.20312 9.30939 5.64062 9.20001 6.1875V6.40625V30.1406L9.30939 30.4688C9.41876 31.0156 9.63751 31.4531 9.85626 32C10.2938 32.875 10.95 33.6406 11.9344 34.1875C12.7 34.625 13.6844 34.9531 14.7781 35.2812C15.1063 35.3906 15.7625 35.3906 16.3094 35.5C16.7469 35.5 16.9656 35.5 17.7313 35.5C18.7156 35.5 19.0438 35.5 19.9188 35.3906C22.1063 35.0625 23.7469 34.5156 24.8406 33.4219C25.7156 32.6562 26.2625 31.5625 26.5906 30.25V30.0312V15.0469L26.4813 14.9375C26.3719 14.5 26.0438 14.0625 25.4969 13.5156C24.95 13.0781 24.7313 12.8594 24.2938 12.75C23.6375 12.4219 22.9813 12.3125 21.9969 12.2031C21.6688 12.2031 21.45 12.2031 20.4656 12.2031C19.2625 12.2031 18.9344 12.2031 18.3875 12.3125C17.95 12.2031 17.5125 12.3125 17.1844 12.5312C16.9656 12.6406 16.7469 12.75 16.7469 12.8594V12.9688V7.28125V7.0625C16.8563 7.0625 16.8563 6.95312 16.9656 6.84375C17.075 6.73438 17.2938 6.625 17.4031 6.625C17.5125 6.625 18.4969 6.625 18.6063 6.625C18.7156 6.625 18.9344 6.73438 19.0438 6.73438C19.1531 6.84375 19.2625 7.0625 19.2625 7.0625C19.2625 7.0625 19.2625 7.9375 19.2625 8.8125V10.5625H22.9813H26.7V8.375C26.7 6.29688 26.7 6.1875 26.7 5.96875C26.4813 4.875 26.1531 4 25.7156 3.23438C24.7313 1.8125 22.9813 0.828125 20.4656 0.5C19.7 0.5 19.2625 0.5 17.95 0.5C17.2938 0.5 16.6375 0.5 16.6375 0.5Z" fill="#9F367B"></path>
  </g>
  <defs>
    <clipPath id="clip0_713_2245">
      <rect width="35" height="35" fill="white" transform="translate(0.450012 0.5)"></rect>
    </clipPath>
  </defs>
</svg>
