<?xml version="1.0" encoding="UTF-8"?>
<svg xmlns="http://www.w3.org/2000/svg" width="36" height="36" viewBox="0 0 36 36" fill="none">
  <g clip-path="url(#clip0_713_2186)">
    <path d="M35.7 3.83333V2.16667C35.7 1.70667 35.3275 1.33333 34.8667 1.33333H31.5333C31.2033 1.33333 30.9383 1.355 30.7 1.41667V1.33333C30.7 0.873333 30.3275 0.5 29.8667 0.5H24.8667C23.4217 0.5 22.8992 1.32 22.5925 2.16667H21.9158C21.7217 1.9075 21.5333 1.57167 21.5333 1.33333C21.5333 0.873333 21.1608 0.5 20.7 0.5H14.8667C14.4408 0.5 14.0833 0.8275 14.0375 1.25C14.0183 1.425 13.6642 2.16667 13.1133 2.16667H10.83C10.7758 2.1025 10.6975 1.98333 10.63 1.83083C10.4967 1.52833 10.1967 1.33333 9.86668 1.33333H1.53335C1.07251 1.33333 0.700012 1.70667 0.700012 2.16667V8.83333C0.700012 11.1858 1.38751 14.1642 1.53251 14.765L1.52585 16.0275L0.960846 16.5617C0.794179 16.7183 0.700012 16.9375 0.700012 17.1667V20.5C0.700012 20.7217 0.787512 20.9333 0.944179 21.0892L1.53335 21.6783V25.365L0.743346 27.7367C0.692512 27.8875 0.686679 28.0483 0.725846 28.2025L1.50001 31.3008L0.744179 33.5708C0.658346 33.825 0.701679 34.105 0.858346 34.3217C1.01418 34.5383 1.26585 34.6667 1.53335 34.6667H13.2C13.4217 34.6667 13.6333 34.5792 13.7892 34.4225L13.8642 34.3475C14.3067 34.9525 14.9225 35.5 15.7 35.5H18.2C18.8133 35.5 19.35 35.2325 19.8225 34.9958C20.1458 34.8333 20.48 34.6667 20.7 34.6667H24.8667C25.0883 34.6667 25.3 34.5792 25.4558 34.4225L25.6583 34.22C25.7108 34.2867 25.7608 34.3525 25.81 34.4158C26.2192 34.9492 26.6417 35.5 27.3667 35.5H31.5333C31.9942 35.5 32.3667 35.1275 32.3667 34.6667V34.0675L34.665 34.6408C34.9142 34.705 35.1783 34.6467 35.3817 34.4875C35.5842 34.3292 35.7017 34.085 35.7 33.8267C35.6992 33.745 35.6475 25.5683 35.7 21.3433C35.7025 21.1183 35.6142 20.9025 35.4558 20.7433L34.8667 20.155V16.3333C34.8667 16.1125 34.7792 15.9 34.6225 15.7442L34.2142 15.3358L34.7183 14.3275L35.4558 13.59C35.6125 13.4333 35.7 13.2208 35.7 13L35.6875 8.825C35.6875 8.7575 35.6792 8.69083 35.6633 8.625L34.9167 5.59833L35.6125 4.20667C35.67 4.09083 35.7 3.9625 35.7 3.83333ZM25.7742 7.16667L28.3108 8.83333L27.465 13.8333L20.7 8.83333L25.7742 7.16667ZM9.86668 28.8333L6.53335 26.3333L8.20001 20.5L14.8667 27.1667L9.86668 28.8333ZM27.5333 28H23.6442L6.53335 7.93833L9.64418 7.16667L29.8667 22.5983L27.5333 28Z" fill="#9F367B"></path>
  </g>
  <defs>
    <clipPath id="clip0_713_2186">
      <rect width="35" height="35" fill="white" transform="translate(0.700012 0.5)"></rect>
    </clipPath>
  </defs>
</svg>
