<?xml version="1.0" encoding="UTF-8"?>
<svg xmlns="http://www.w3.org/2000/svg" width="37" height="36" viewBox="0 0 37 36" fill="none">
  <g clip-path="url(#clip0_713_868)">
    <path d="M24.3844 11.4375C24.3844 10.8906 24.0563 10.4531 23.4 10.4531H22.0875V12.4219H23.4C24.0563 12.4219 24.3844 11.875 24.3844 11.4375ZM27.3375 18H24.6031L22.8531 14.3906H22.0875V18H19.6813V8.26562H23.5094C25.6969 8.26562 26.7906 9.79688 26.7906 11.3281C26.7906 12.6406 26.025 13.5156 25.2594 13.8438L27.3375 18ZM8.85315 18C4.04065 18 0.103149 14.0625 0.103149 9.25C0.103149 4.4375 4.04065 0.5 8.85315 0.5C13.6656 0.5 17.6031 4.4375 17.6031 9.25C17.6031 14.0625 13.6656 18 8.85315 18ZM8.85315 14.0625C11.5875 14.0625 13.6656 11.875 13.6656 9.25C13.6656 6.625 11.4781 4.4375 8.85315 4.4375C6.22815 4.4375 4.04065 6.51562 4.04065 9.25C4.04065 11.9844 6.11877 14.0625 8.85315 14.0625ZM12.025 22.1562C13.9938 25.4375 16.6188 28.3906 19.5719 30.7969C20.8844 29.7031 22.1969 28.6094 23.2906 27.2969C23.2906 25.7656 22.7438 24.2344 20.3375 22.9219C16.8375 20.9531 13.1188 21.7188 12.025 22.1562ZM19.2438 6.29688C18.8063 4.875 18.15 3.67188 17.275 2.57812C18.0406 2.46875 18.8063 2.46875 19.5719 2.46875C25.0406 2.46875 31.1656 4.54688 35.1031 7.71875C35.2125 19.6406 27.9938 30.0312 19.6813 35.5C14.2125 32 9.40002 26.4219 6.55627 19.6406C7.3219 19.8594 8.1969 19.9688 8.96252 19.9688C11.15 19.9688 13.1188 19.3125 14.7594 18.2188C17.0563 18.7656 19.5719 19.3125 21.8688 20.5156C24.0563 21.7188 25.2594 22.9219 25.9156 24.0156C28.8688 19.75 30.8375 14.7188 31.275 9.57812C27.9938 7.5 23.6188 6.29688 19.6813 6.29688C19.5719 6.29688 19.3531 6.29688 19.2438 6.29688Z" fill="#9F367B"></path>
  </g>
  <defs>
    <clipPath id="clip0_713_868">
      <rect width="36.0938" height="35" fill="white" transform="translate(0.103149 0.5)"></rect>
    </clipPath>
  </defs>
</svg>
