<?xml version="1.0" encoding="UTF-8"?>
<svg xmlns="http://www.w3.org/2000/svg" width="37" height="36" viewBox="0 0 37 36" fill="none">
  <g clip-path="url(#clip0_713_802)">
    <path d="M22.5651 8.79752H18.9454V5.64074C18.9454 5.51362 18.7416 4.97318 18.6684 4.82334C18.1987 3.87041 16.8964 3.71299 15.9948 4.12127C15.2751 4.44705 15.0655 5.24677 14.9855 5.97409C15.2204 10.3187 14.6833 14.9739 14.9855 19.2814C15.0444 20.1207 15.2464 20.9532 16.1101 21.2714C17.0185 21.6056 18.2677 21.4381 18.708 20.4709C18.766 20.3438 18.9454 19.7957 18.9454 19.6981V14.6893H17.1776V11.4484L17.3038 11.3221H22.5651C22.4405 13.9586 22.7301 16.745 22.5685 19.3647C22.3033 23.6521 19.3225 25.4737 15.2246 24.6816C12.6116 24.1765 11.3531 22.0653 11.1965 19.5339C10.9179 15.0084 11.4128 10.1966 11.2016 5.64074C11.449 1.55291 14.9577 -0.181213 18.7096 0.740567C22.5828 1.69265 22.7074 5.46143 22.5651 8.79668V8.79752Z" fill="#9F367B"></path>
    <path d="M35.8655 8.79742H32.2457V5.55646C32.2457 5.50679 32.0521 4.95962 32.0084 4.86786C31.4241 3.65565 29.4206 3.58494 28.6731 4.67761C28.3903 5.09262 28.3583 5.57498 28.2859 6.05818C28.5031 10.3607 28.0089 14.9266 28.2859 19.198C28.3583 20.3201 28.6807 21.2705 29.9409 21.4153C30.6539 21.4969 31.5403 21.2991 31.9275 20.6425C31.9991 20.5213 32.2466 19.8773 32.2466 19.783V15.7003H35.8664C35.9219 19.0818 36.2982 23.4356 32.2457 24.5805C28.3271 25.6875 24.7957 23.8607 24.5028 19.6138C24.1964 15.1623 24.7343 10.3758 24.4977 5.88897C24.5802 1.59996 28.4079 -0.331152 32.2836 0.80529C35.9379 1.87691 36.0044 5.60528 35.8664 8.79742H35.8655Z" fill="#9F367B"></path>
    <path d="M10.0222 0.800049V4.16728H3.79278V11.3227H8.67527V14.7741H3.79278V24.5391H0.00463867V0.800049H10.0222Z" fill="#9F367B"></path>
    <path d="M35.9499 26.0544L35.8708 27.2801H-0.000337757L-0.0794678 26.0544H35.9499Z" fill="#9F367B"></path>
  </g>
  <defs>
    <clipPath id="clip0_713_802">
      <rect width="36.0294" height="35" fill="white" transform="translate(0.435181 0.5)"></rect>
    </clipPath>
  </defs>
</svg>
