<?xml version="1.0" encoding="UTF-8"?>
<svg xmlns="http://www.w3.org/2000/svg" width="35" height="36" viewBox="0 0 35 36" fill="none">
  <g clip-path="url(#clip0_713_2386)">
    <path d="M0.147339 5.61263C0.147339 5.8398 0.143818 6.06715 0.147693 6.29414C0.231693 11.0929 0.301428 15.8916 0.414309 20.6897C0.436321 21.6274 0.637428 22.5454 1.12487 23.3953C1.6338 24.283 2.36656 24.9615 3.07466 25.659C5.03801 27.5939 7.01843 29.5121 9.02475 31.4022C10.0754 32.3923 11.1867 33.3185 12.2858 34.2559C12.887 34.7687 13.6233 35.073 14.3736 35.2308C15.0889 35.381 15.8448 35.3647 16.5833 35.3743C19.5306 35.4129 22.4776 35.439 25.425 35.4582C27.2138 35.4696 29.0028 35.4603 30.8804 35.4603C30.6679 35.2534 30.4766 35.0741 30.2928 34.8871C29.2536 33.831 28.2132 32.7762 27.179 31.7151C26.0223 30.5288 24.8736 29.3344 23.717 28.1482C23.5023 27.9279 23.4083 27.6916 23.406 27.3723C23.3782 23.6784 23.3345 19.9846 23.2935 16.2905C23.2921 16.1688 23.2741 16.0473 23.256 15.8323C23.0945 15.9755 23.0003 16.0552 22.9101 16.1394C21.0223 17.9069 19.1338 19.6743 17.2485 21.4448C17.096 21.5878 16.957 21.623 16.7943 21.4721C16.6876 21.3731 16.5717 21.2838 16.468 21.1822C14.8588 19.6042 13.252 18.0239 11.642 16.4469C11.306 16.1177 10.9589 15.7999 10.6169 15.4769L10.4855 15.5359C10.4864 19.9867 10.6738 24.4367 10.6796 28.8958C10.5403 28.8472 10.4563 28.7938 10.3862 28.726C9.89539 28.2505 9.40372 27.776 8.91944 27.2938C7.88855 26.2673 6.85836 25.2403 5.83979 24.2022C5.73061 24.0905 5.64767 23.9042 5.64203 23.7492C5.61157 22.9219 5.6091 22.0941 5.59765 21.2662C5.55028 17.8058 5.49939 14.3455 5.46258 10.8847C5.45959 10.5972 5.37577 10.3934 5.17061 10.1995C3.70281 8.81097 2.24259 7.41414 0.779013 6.02083C0.607843 5.85794 0.43051 5.70139 0.255994 5.54219C0.219717 5.56561 0.183616 5.58904 0.147339 5.61263Z" fill="#9F367B"></path>
    <path d="M18.5188 1.71194C13.7698 1.74135 9.02068 1.72903 4.27143 1.73537C4.16489 1.73554 4.05834 1.76055 3.86182 1.7852C8.11412 6.20973 12.489 10.3844 16.8232 14.5754C19.0147 12.4122 21.1785 10.2764 23.35 8.13293C23.4558 8.18012 23.505 8.18787 23.5333 8.2164C25.0416 9.72963 26.5506 11.2423 28.0498 12.7645C28.1512 12.8676 28.2174 13.0412 28.2308 13.1882C28.269 13.6072 28.2822 14.0293 28.2863 14.4504C28.322 18.1589 28.3557 21.8675 28.3828 25.576C28.3849 25.8626 28.4374 26.0897 28.7258 26.2158C28.8167 26.2553 28.8968 26.3278 28.9695 26.3983C30.1669 27.5552 31.3598 28.7166 32.5594 29.8711C32.8534 30.1538 33.1676 30.4155 33.5209 30.73C33.5209 30.5268 33.5221 30.3445 33.5207 30.1622C33.4985 27.3404 33.4821 24.5186 33.4513 21.6969C33.4284 19.6041 33.4015 17.511 33.3471 15.4187C33.3185 14.3229 32.8212 13.4087 32.0666 12.6397C31.3851 11.945 30.6694 11.2839 29.9765 10.6003C27.5759 8.23225 25.1793 5.85982 22.7796 3.49056C21.6096 2.33552 20.2349 1.71177 18.5608 1.71177C18.5467 1.71177 18.5329 1.71177 18.5188 1.71194Z" fill="#9F367B"></path>
    <path d="M0.543335 27.915C0.613071 30.3792 0.682808 32.8433 0.754305 35.3676C0.930229 35.398 1.10756 35.4551 1.28525 35.4556C3.26356 35.4623 5.24205 35.4605 7.22054 35.4588C7.33571 35.4588 7.45088 35.4311 7.56605 35.4331C7.75835 35.4364 7.95048 35.4524 8.14261 35.4648C8.21622 35.4695 8.2893 35.4796 8.36256 35.4873C8.377 35.4609 8.39161 35.4343 8.40605 35.4079C5.82001 32.8891 3.23415 30.3705 0.648467 27.8518C0.613247 27.8727 0.578379 27.894 0.543335 27.915Z" fill="#9F367B"></path>
    <path d="M25.861 1.73193C25.8338 1.77895 25.8061 1.82597 25.7788 1.87281C28.2653 4.32537 30.7521 6.77757 33.2562 9.24756C33.4089 8.7698 33.3629 2.00559 33.2247 1.73193H25.861Z" fill="#9F367B"></path>
  </g>
  <defs>
    <clipPath id="clip0_713_2386">
      <rect width="34.2075" height="35" fill="white" transform="translate(0.14624 0.5)"></rect>
    </clipPath>
  </defs>
</svg>
