<?xml version="1.0" encoding="UTF-8"?>
<svg xmlns="http://www.w3.org/2000/svg" width="25" height="24" viewBox="0 0 25 24" fill="none">
  <g clip-path="url(#clip0_1358_9962)">
    <path d="M0.666626 12C0.666626 13.9254 0.67118 15.5 0.677252 15.5C0.68636 15.5 1.92355 15.2603 2.07535 15.2286L2.15429 15.2127V13.927V12.6429H2.62488H3.09547V12.4079C3.09547 12.2794 3.10002 11.9444 3.10609 11.6619L3.1152 11.1508H2.63551H2.15429V10.5873V10.0238H2.70837C3.0135 10.0238 3.26245 10.0206 3.26245 10.0159C3.26245 9.99841 3.38389 8.64286 3.39148 8.5746L3.40059 8.5H2.03285H0.666626V12Z" fill="#9F367B"></path>
    <path d="M23.3733 8.70479L22.1619 8.80956V11.9715V15.1334L22.212 15.1413C22.256 15.1492 24.6013 15.327 24.6484 15.3254C24.6621 15.3254 24.6666 15.1572 24.6666 14.5397V13.754H24.1505H23.6344V13.1826V12.6111H24.0746H24.5148V11.9286V11.2461H24.0594H23.604V10.7937V10.3413L23.6389 10.335C23.6571 10.3302 23.812 10.3238 23.9835 10.3175C24.155 10.3127 24.3782 10.3048 24.4814 10.2984L24.6666 10.2889V9.44289V8.59527L24.6256 8.59686C24.6013 8.59844 24.0381 8.64606 23.3733 8.70479Z" fill="#9F367B"></path>
    <path d="M15.5964 8.92376C15.6116 9.08249 15.7847 11.4746 15.7816 11.4777C15.7801 11.4809 15.557 10.9079 15.2852 10.2047C15.015 9.50154 14.7873 8.919 14.7812 8.90788C14.7721 8.89042 14.3532 8.97138 13.6655 9.12376L13.6002 9.13804V11.8666V14.5952H14.2757H14.9513L14.9437 14.4809C14.9285 14.2682 14.8723 12.5095 14.8784 12.4396C14.883 12.3777 14.9285 12.4857 15.3596 13.5746C15.6207 14.2365 15.8423 14.7841 15.8484 14.7936C15.8575 14.8031 16.0685 14.7888 16.4268 14.7571C16.738 14.7285 16.993 14.7031 16.993 14.7015C16.9945 14.6999 16.9869 13.5555 16.9763 12.1587C16.9657 10.7619 16.9566 9.44281 16.9566 9.22534L16.9551 8.83328H16.2719H15.5873L15.5964 8.92376Z" fill="#9F367B"></path>
    <path d="M4.90947 8.93015C4.00169 8.99364 3.50226 9.64285 3.34438 10.9603C3.3125 11.2333 3.29884 12.1603 3.32161 12.4841C3.39751 13.5349 3.66924 14.2175 4.15197 14.5651C4.41155 14.7508 4.80169 14.8508 5.18726 14.827C5.62597 14.8016 5.92503 14.6714 6.19372 14.3905C6.41383 14.1603 6.53375 13.9444 6.64912 13.5762C6.81004 13.0619 6.8829 12.2936 6.84647 11.4936C6.80548 10.5984 6.67645 10.0413 6.41079 9.61428C6.15728 9.20793 5.75652 8.96507 5.28897 8.93491C5.21459 8.93015 5.13565 8.92539 5.1144 8.92221C5.09315 8.92063 5.00207 8.9238 4.90947 8.93015ZM5.12351 10.1778C5.23432 10.3032 5.28138 10.8032 5.28138 11.873C5.28138 13.1905 5.20244 13.7381 5.02939 13.6206C4.95501 13.5682 4.89884 13.3127 4.87152 12.8889C4.85178 12.5794 4.85178 11.1619 4.87152 10.8651C4.90036 10.446 4.95197 10.2143 5.02939 10.1587C5.07189 10.127 5.07948 10.1286 5.12351 10.1778Z" fill="#9F367B"></path>
    <path d="M7.04236 11.8159V14.7064H7.73913H8.43439L8.4435 14.5048C8.44957 14.3921 8.46171 14.027 8.47082 13.6905C8.47993 13.354 8.49207 13.0588 8.49815 13.035C8.50574 13.0016 8.57101 13.2159 8.77139 13.9397C8.91712 14.4619 9.04008 14.8953 9.04615 14.9016C9.0583 14.9159 10.4822 14.7985 10.4974 14.7826C10.5019 14.7762 10.3441 14.2572 10.1467 13.6254L9.78847 12.4794L9.86437 12.4096C10.1164 12.1794 10.3243 11.735 10.3835 11.2953C10.4093 11.1032 10.3926 10.627 10.3532 10.4508C10.2014 9.76036 9.79909 9.22385 9.286 9.02385C9.06285 8.93814 9.08107 8.93972 8.02604 8.93338L7.04236 8.92703V11.8159ZM8.60744 10.2953C8.71522 10.3508 8.80327 10.4937 8.85033 10.6905C8.88221 10.8223 8.87765 11.2397 8.84274 11.3731C8.77746 11.6239 8.66209 11.7699 8.48904 11.8254L8.45412 11.835V11.0413V10.2461L8.50422 10.2572C8.53002 10.2619 8.57708 10.2794 8.60744 10.2953Z" fill="#9F367B"></path>
    <path d="M10.4275 9.6825V10.4206H10.8146H11.2017V12.5476V14.6746H11.9303H12.659V12.6746V10.6746H13.0537H13.4484V9.93647V9.19837L13.415 9.19202C13.3831 9.18408 10.4882 8.94281 10.4472 8.9444C10.432 8.9444 10.4275 9.10313 10.4275 9.6825Z" fill="#9F367B"></path>
    <path d="M17.2738 11.9842V14.8651H18.0252H18.7766V11.9842V9.10321H18.0252H17.2738V11.9842Z" fill="#9F367B"></path>
    <path d="M20.4921 9.30316C19.6693 9.34919 18.9847 9.38729 18.9711 9.38729C18.9452 9.38888 18.9437 9.43491 18.9437 10.1349V10.8809H19.3308H19.7179V12.9682V15.0555H20.4542H21.1904V12.8809V10.7063H21.6003H22.0101V9.9603C22.0101 9.54919 22.0056 9.21586 21.9995 9.21586C21.9919 9.21745 21.3149 9.25554 20.4921 9.30316Z" fill="#9F367B"></path>
  </g>
  <defs>
    <clipPath id="clip0_1358_9962">
      <rect width="24" height="24" fill="white" transform="translate(0.666626)"></rect>
    </clipPath>
  </defs>
</svg>
