<?xml version="1.0" encoding="UTF-8"?>
<svg xmlns="http://www.w3.org/2000/svg" width="25" height="25" viewBox="0 0 25 25" fill="none">
  <g clip-path="url(#clip0_2925_20141)">
    <path d="M12.7144 24.75C19.3418 24.75 24.7144 19.3774 24.7144 12.75C24.7144 6.12258 19.3418 0.75 12.7144 0.75C6.08694 0.75 0.714355 6.12258 0.714355 12.75C0.714355 19.3774 6.08694 24.75 12.7144 24.75Z" fill="#F0F0F0"></path>
    <path d="M16.8882 12.7501C16.8882 13.7935 15.0195 16.4022 12.7143 16.4022C10.4091 16.4022 8.54041 13.7935 8.54041 12.7501C8.54041 10.4448 10.4091 8.57617 12.7143 8.57617C15.0195 8.57617 16.8882 10.4448 16.8882 12.7501Z" fill="#D80027"></path>
    <path d="M16.8882 12.75C16.8882 15.0552 15.0195 16.9239 12.7143 16.9239C10.4091 16.9239 8.54041 15.0552 8.54041 12.75" fill="#0052B4"></path>
    <path d="M17.1382 16.4395L18.2448 15.3329L18.9825 16.0706L17.8759 17.1772L17.1382 16.4395Z" fill="black"></path>
    <path d="M15.2933 18.2837L16.3999 17.1771L17.1377 17.9148L16.0311 19.0214L15.2933 18.2837Z" fill="black"></path>
    <path d="M19.3516 18.6523L20.4582 17.5457L21.1959 18.2835L20.0893 19.3901L19.3516 18.6523Z" fill="black"></path>
    <path d="M17.5067 20.4971L18.6133 19.3905L19.3511 20.1282L18.2445 21.2348L17.5067 20.4971Z" fill="black"></path>
    <path d="M18.2448 17.5459L19.3513 16.4393L20.0891 17.177L18.9825 18.2836L18.2448 17.5459Z" fill="black"></path>
    <path d="M16.4004 19.3906L17.507 18.284L18.2447 19.0218L17.1381 20.1284L16.4004 19.3906Z" fill="black"></path>
    <path d="M19.3564 9.0625L16.4055 6.11156L17.1432 5.37382L20.0942 8.32476L19.3564 9.0625Z" fill="black"></path>
    <path d="M16.4049 8.3252L15.2983 7.2186L16.036 6.48089L17.1426 7.58748L16.4049 8.3252Z" fill="black"></path>
    <path d="M18.2493 10.1699L17.1427 9.06332L17.8804 8.32561L18.987 9.43221L18.2493 10.1699Z" fill="black"></path>
    <path d="M18.6179 6.11133L17.5113 5.00473L18.2491 4.26699L19.3557 5.37358L18.6179 6.11133Z" fill="black"></path>
    <path d="M20.4633 7.95654L19.3567 6.84994L20.0944 6.1122L21.201 7.2188L20.4633 7.95654Z" fill="black"></path>
    <path d="M4.96851 17.5439L7.91945 20.4949L7.1817 21.2326L4.23076 18.2817L4.96851 17.5439Z" fill="black"></path>
    <path d="M7.91931 18.2812L9.02591 19.3878L8.2882 20.1256L7.1816 19.019L7.91931 18.2812Z" fill="black"></path>
    <path d="M6.07471 16.437L7.18131 17.5436L6.44356 18.2814L5.33696 17.1748L6.07471 16.437Z" fill="black"></path>
    <path d="M7.18152 15.3301L10.1325 18.281L9.39472 19.0188L6.44378 16.0678L7.18152 15.3301Z" fill="black"></path>
    <path d="M7.91907 5.00244L4.96813 7.95338L4.23038 7.21564L7.18132 4.2647L7.91907 5.00244Z" fill="black"></path>
    <path d="M9.02576 6.10938L6.07482 9.06032L5.33707 8.32257L8.28801 5.37163L9.02576 6.10938Z" fill="black"></path>
    <path d="M10.1333 7.21631L7.18236 10.1672L6.44465 9.42954L9.39559 6.4786L10.1333 7.21631Z" fill="black"></path>
  </g>
  <defs>
    <clipPath id="clip0_2925_20141">
      <rect width="24" height="24" fill="white" transform="translate(0.714355 0.75)"></rect>
    </clipPath>
  </defs>
</svg>
