<?xml version="1.0" encoding="UTF-8"?>
<svg xmlns="http://www.w3.org/2000/svg" width="86" height="22" viewBox="0 0 86 22" fill="none">
  <path d="M48.6236 7.33744C48.6236 4.87237 48.6656 2.58937 48.7916 0.460449L42.3068 1.69298V2.28124L42.9371 2.36528C43.3993 2.4073 43.7074 2.57537 43.8755 2.82748C44.0436 3.1216 44.1696 3.54179 44.2537 4.18607C44.3377 5.4186 44.4217 8.21982 44.3797 12.6317C44.3797 17.0016 44.3377 19.7608 44.2537 20.8253C46.5927 21.3295 48.4135 21.5396 49.772 21.5396C52.3212 21.5396 54.31 20.8253 55.7527 19.3406C57.1953 17.898 57.9516 15.8671 57.9516 13.3601C57.9516 11.3712 57.4054 9.71847 56.2989 8.40189C55.1924 7.08532 53.7918 6.45505 52.1391 6.45505C51.0326 6.44104 49.8981 6.73517 48.6236 7.33744ZM48.7496 20.3911C48.6656 19.0325 48.5815 14.9567 48.5815 8.30385C48.9597 8.1778 49.4779 8.09376 50.1082 8.09376C51.1306 8.09376 51.929 8.59798 52.5312 9.66244C53.1195 10.7269 53.4276 12.0015 53.4276 13.6122C53.4276 15.601 53.0915 17.2117 52.4052 18.5703C51.7329 19.8869 50.8785 20.5592 49.8141 20.5592C49.4639 20.4751 49.1278 20.4331 48.7496 20.3911ZM17.9502 0.880632H0.974854V1.735L1.87124 1.81904C2.54353 1.94509 3.01974 2.1972 3.31387 2.58937C3.608 3.00955 3.77607 3.69585 3.81809 4.62025C4.15423 9.20024 4.15423 13.4861 3.81809 17.4358C3.73405 18.3742 3.56598 19.0465 3.31387 19.4667C3.01974 19.8869 2.54353 20.139 1.87124 20.237L0.974854 20.3631V21.2175H11.9136V20.3631L10.7791 20.265C10.1068 20.181 9.63061 19.8869 9.33648 19.4947C9.04236 19.0745 8.87428 18.3882 8.83227 17.4638C8.70621 15.7691 8.62218 13.8222 8.62218 11.6513L10.9192 11.6933C12.1517 11.7353 12.9921 12.6738 13.4263 14.5366H14.2806V7.61756H13.4263C13.0061 9.43835 12.1937 10.3768 10.9192 10.4188L8.62218 10.4608C8.62218 6.63713 8.70621 3.93396 8.83227 2.26723H12.1797C14.5608 2.26723 16.1715 3.7939 17.0959 6.84722L18.1183 6.55309L17.9502 0.880632ZM15.9614 13.9483C15.9614 16.1473 16.5916 17.9821 17.8242 19.4247C19.0567 20.8673 20.8775 21.5396 23.1745 21.5396C25.4715 21.5396 27.3343 20.8253 28.6929 19.3406C30.0515 17.898 30.6818 16.0772 30.6818 13.8643C30.6818 11.6513 30.0515 9.83052 28.8189 8.38789C27.5864 6.94527 25.7656 6.27297 23.4686 6.27297C21.1716 6.27297 19.3088 6.98728 17.9502 8.47192C16.5916 9.91455 15.9614 11.7493 15.9614 13.9483ZM25.4155 9.11621C25.9197 10.3487 26.1298 11.9594 26.1298 13.9063C26.1298 18.4022 25.1914 20.6152 23.3706 20.6152C22.4322 20.6152 21.7179 19.9849 21.2136 18.7104C20.7094 17.4358 20.4993 15.8251 20.4993 13.9203C20.4993 9.46636 21.4377 7.2534 23.2585 7.2534C24.1829 7.19737 24.9113 7.84165 25.4155 9.11621ZM61.257 19.4247C62.6576 20.8253 64.4364 21.5396 66.5653 21.5396C67.8819 21.5396 69.0304 21.2875 70.0388 20.7272C71.0613 20.223 71.8596 19.5788 72.4199 18.8224L71.9997 18.3182C71.0613 19.0325 70.0108 19.3827 68.7783 19.3827C67.0836 19.3827 65.767 18.8364 64.8706 17.6879C63.9322 16.5394 63.512 15.0968 63.5961 13.234H72.672C72.672 11.2031 72.1678 9.53639 71.1033 8.23382C70.0389 6.95927 68.5542 6.329 66.6494 6.329C64.2683 6.329 62.4476 7.09933 61.131 8.58398C59.8144 10.0686 59.1841 11.8894 59.1841 14.0604C59.1841 16.2453 59.8564 18.0241 61.257 19.4247ZM64.4084 8.76605C64.8706 7.74361 65.4729 7.23939 66.2712 7.23939C67.5458 7.23939 68.176 8.85009 68.176 12.1135L63.6801 12.1975C63.7221 10.937 63.9322 9.7885 64.4084 8.76605ZM84.087 7.07132C82.9385 6.5671 81.4958 6.25897 79.7591 6.25897C77.9803 6.25897 76.5797 6.72117 75.5152 7.61756C74.4508 8.51395 73.9045 9.60642 73.9045 10.923C73.9045 12.0715 74.2407 12.9539 74.885 13.5982C75.5152 14.2284 76.5377 14.7887 77.8543 15.2509C79.0448 15.6711 79.8851 16.1052 80.3193 16.4834C80.7395 16.9036 80.9916 17.3798 80.9916 18.0101C80.9916 18.5983 80.7815 19.1586 80.3193 19.5788C79.8991 20.041 79.2969 20.251 78.5405 20.251C76.6777 20.251 75.2771 18.8925 74.2967 16.1753L73.5824 16.3854L73.7505 20.6292C75.2771 21.2175 76.9719 21.5256 78.8347 21.5256C80.7815 21.5256 82.2662 21.1054 83.3726 20.209C84.4791 19.3547 85.0254 18.1361 85.0254 16.6095C85.0254 15.587 84.7733 14.7467 84.213 14.1024C83.6668 13.4721 82.7704 12.9119 81.4958 12.4076C80.0952 11.9034 79.1148 11.4272 78.6106 11.007C78.1064 10.5868 77.8402 10.0686 77.8402 9.43835C77.8402 8.80807 78.0083 8.28985 78.3865 7.86967C78.7646 7.44948 79.2409 7.28141 79.8291 7.28141C81.5238 7.28141 82.7564 8.51394 83.5267 10.923L84.241 10.7129L84.087 7.07132ZM43.2732 6.69316C42.685 6.39903 42.0407 6.27297 41.3264 6.27297C40.6121 6.27297 39.8838 6.5671 39.0714 7.16936C38.2591 7.75762 37.6708 8.56997 37.2086 9.67645L37.2506 6.28698L30.8078 7.56153V8.14979L31.4381 8.1918C32.2504 8.27584 32.7126 8.90612 32.7967 10.0546C33.0488 12.6878 33.0488 15.489 32.7967 18.4583C32.7126 19.6068 32.2504 20.195 31.4381 20.3211L30.8078 20.4051V21.2175H39.7997V20.4051L38.6512 20.3211C37.8389 20.237 37.3767 19.6068 37.2926 18.4583C37.0405 15.9932 36.9985 13.3741 37.2086 10.6569C37.4607 10.2367 38.0209 9.98458 38.8613 9.88654C39.7157 9.8025 40.6821 10.0546 41.7045 10.6569C41.7045 10.6429 43.2732 6.69316 43.2732 6.69316Z" fill="white"></path>
</svg>
