<?xml version="1.0" encoding="UTF-8"?>
<svg xmlns="http://www.w3.org/2000/svg" width="50" height="50" viewBox="0 0 50 50" fill="none">
  <g clip-path="url(#clip0_733_2285)">
    <path d="M44.3167 30.8646H44.1125C42.5563 35.1334 39.2479 38.5334 35.0229 40.2042V30.8646L40.1146 26.3188L35.0229 21.773V15.4105C39.4771 15.423 43.1167 11.8625 43.2042 7.41045C43.2042 1.93337 37.9771 0.00211727 35.0229 0.00211727C34.2584 -0.0124661 33.4938 0.0708673 32.75 0.252117V0.525034H33.9084C35.5771 0.231284 37.1688 1.34587 37.4625 3.01462C37.4792 3.10628 37.4917 3.20212 37.5 3.29795C37.4313 4.9417 36.0417 6.2167 34.4 6.14587C34.3584 6.14378 34.3146 6.1417 34.2729 6.13753C29.1813 6.13753 23.1834 2.00212 16.6604 2.00212C11.5563 1.7292 7.18336 5.60837 6.84169 10.7063C6.68336 13.898 8.87086 16.7313 12 17.3875V17.1375C11.0438 16.523 10.5021 15.4313 10.5917 14.2959C10.7459 12.1813 12.5854 10.5896 14.7021 10.7438C14.725 10.748 14.75 10.75 14.7729 10.7521C20.25 10.7521 29.0896 15.298 34.5667 15.298H34.7709V21.8438L29.6792 26.3896L34.7709 30.9355V40.4125C32.7334 41.0834 30.5979 41.4146 28.4521 41.3896C24.9667 41.5646 21.5396 40.4396 18.8396 38.2313L28.0667 34.0959V15.523L15.1584 21.2042C16.3917 17.5584 19.1063 14.6042 22.6354 13.0688V12.8646C13.2271 14.9563 5.68127 21.7042 5.68127 31C5.68127 41.8188 14.0667 50 26.1354 50C38.6584 50 44.3167 40.9105 44.3167 31.6375V30.8646ZM18.4542 37.8875C15.6146 35.05 14.0979 31.148 14.2729 27.1375C14.2396 25.3042 14.5 23.4792 15.0459 21.7292L19.3188 19.775V37.4334L18.4542 37.8875Z" fill="white"></path>
  </g>
  <defs>
    <clipPath id="clip0_733_2285">
      <rect width="50" height="50" fill="white"></rect>
    </clipPath>
  </defs>
</svg>
