<?xml version="1.0" encoding="UTF-8"?>
<svg xmlns="http://www.w3.org/2000/svg" width="74" height="50" viewBox="0 0 74 50" fill="none">
  <g clip-path="url(#clip0_733_2288)">
    <path d="M37 0.00610352H0.450317V12.1053H12.5495V37.0599H24.9008V12.1053H37V0.00610352ZM49.0992 0.00610352H73.5497V12.1053H49.0992V0.00610352ZM49.0992 24.3177V12.1053H37V37.0599H73.5497V24.3356L49.0992 24.3177Z" fill="white"></path>
    <path d="M5.49166 42.1012V49.6632H3.47512V42.1012H0.450317V40.5888H8.01233V42.1012H5.49166ZM13.6763 46.6384H9.48263C9.54918 47.6467 10.2572 48.1089 10.9252 48.1089C11.4329 48.1089 11.8599 47.9963 12.1273 47.6882L13.4361 48.8203C12.8752 49.5412 11.8599 49.9742 10.9252 49.9742C8.90842 49.9742 7.62616 48.5546 7.62616 46.3374C7.62616 44.187 8.97497 42.6822 10.7518 42.6822C12.6219 42.6822 13.7032 44.1918 13.7032 46.1955C13.7032 46.464 13.6899 46.6384 13.6763 46.6384ZM10.6583 44.3743C9.9903 44.3743 9.5764 44.6218 9.5096 45.6301H11.9138C11.8604 44.6218 11.4863 44.3743 10.6583 44.3743ZM18.0973 49.9939C16.2673 49.9939 14.8118 48.4979 14.8118 46.3475C14.8118 44.1971 16.2277 42.6877 18.1774 42.6877C19.5131 42.6877 20.3679 43.3424 20.9557 44.2374L19.7405 45.466C19.3264 44.8782 18.8857 44.4641 18.1379 44.4641C17.2561 44.4641 16.6819 45.1986 16.6819 46.347C16.6819 47.4694 17.2561 48.2176 18.1379 48.2176C18.8588 48.2176 19.313 47.8972 19.7942 47.3227L20.9693 48.4311C20.2877 49.3395 19.4862 49.9939 18.0973 49.9939ZM26.4132 49.6632V46.0536C26.4132 44.7985 26.173 44.4245 25.4115 44.4245C24.65 44.4245 24.3967 44.7988 24.3967 46.0143V49.6637H22.3801V41.0327L24.3967 40.1104V43.3033C24.3967 42.9693 25.2046 42.689 25.9391 42.689C27.729 42.689 28.4298 43.9176 28.4298 45.8943V49.6637L26.4132 49.6632Z" fill="white"></path>
    <path d="M35.7939 43.2221C35.4599 42.5814 34.9258 42.207 34.0846 42.207C32.6821 42.207 31.881 43.4361 31.881 45.1721C31.881 46.8549 32.6957 48.1372 34.098 48.1372C34.9401 48.1372 35.4342 47.7767 35.928 46.9487L37.5042 47.8833C36.8634 49.2057 35.7407 49.9936 34.045 49.9936C31.6007 49.9936 29.9575 48.1231 29.9575 45.1716C29.9575 42.3268 31.6668 40.3501 34.1111 40.3501C35.8745 40.3501 36.9431 41.2048 37.5301 42.4198L35.7939 43.2221ZM42.6592 44.9851C42.3653 44.7176 42.0678 44.5308 41.6539 44.5308C40.9333 44.5308 40.529 44.8389 40.529 46.0533V49.6629H38.5124V42.6051H40.529V43.3025C41.0331 42.9685 41.2539 42.6882 41.9085 42.6882C42.5092 42.6882 42.9312 42.9282 43.1714 43.1823L42.6592 44.9851ZM48.5951 49.6004V49.3796C48.091 49.7133 47.7872 49.9939 47.0527 49.9939C45.2625 49.9939 44.562 48.7648 44.562 46.7886V42.6053H46.0744V46.6278C46.0744 47.8833 46.5667 48.2574 47.3285 48.2574C48.0887 48.2574 48.5951 47.8828 48.5951 46.6674V42.6051H50.6116V49.6629H48.5159L48.5951 49.6004ZM55.905 49.6632V46.0536C55.905 44.7985 55.7909 44.4245 55.0291 44.4245C54.2689 44.4245 54.1406 44.7988 54.1406 46.0143V49.6637H52.124V42.6058H54.1406V43.3033C54.1406 42.9693 54.8224 42.689 55.5569 42.689C57.3471 42.689 57.9216 43.9176 57.9216 45.8943V49.6637L55.905 49.6632ZM62.7996 49.9939C60.9696 49.9939 59.5144 48.4979 59.5144 46.3475C59.5144 44.1971 60.9302 42.6877 62.88 42.6877C64.2162 42.6877 65.0707 43.3424 65.658 44.2374L64.4436 45.466C64.0289 44.8782 63.5888 44.4641 62.8412 44.4641C61.9589 44.4641 61.3845 45.1986 61.3845 46.347C61.3845 47.4694 61.9589 48.2176 62.8412 48.2176C63.5613 48.2176 64.0163 47.8972 64.4972 47.3227L65.6724 48.4311C64.9895 49.3395 64.1887 49.9939 62.7996 49.9939ZM71.0291 49.8472V46.0536C71.0291 44.7985 70.7888 44.4245 70.0271 44.4245C69.2669 44.4245 69.0125 44.7988 69.0125 46.0143V49.6637H66.996V41.0327L69.0125 40.1104V43.3033C69.0125 42.9693 69.8204 42.689 70.5549 42.689C72.3451 42.689 73.0456 43.9176 73.0456 45.8943V49.6637H71.0764L71.0291 49.8472Z" fill="white"></path>
  </g>
  <defs>
    <clipPath id="clip0_733_2288">
      <rect width="73.0994" height="50" fill="white" transform="translate(0.450317)"></rect>
    </clipPath>
  </defs>
</svg>
