<?xml version="1.0" encoding="UTF-8"?>
<svg xmlns="http://www.w3.org/2000/svg" version="1.2" viewBox="0 0 106 24" width="106" height="24">
  <title>logo-mashable</title>
  <defs>
    <clipPath id="cp1">
      <path d="m0.45-23.94h105.1v71.88h-105.1z"></path>
    </clipPath>
  </defs>
  <style>
		.s0 { fill: #ffffff } 
	</style>
  <g id="Clip-Path" clip-path="url(#cp1)">
    <g>
      <path fill-rule="evenodd" class="s0" d="m15.6 2.9q-0.7 0-1.4 0c-0.1 0-0.1 0-0.2 0.1q0 0.1 0 0.1-0.1 0.2-0.2 0.5-0.1 0.2-0.2 0.5 0 0.1 0 0.2-0.1 0.1-0.2 0.3 0 0 0 0.1c0 0-0.1 0.1-0.1 0.2q0 0.1-0.1 0.3c0 0.2-0.1 0.3-0.2 0.4q-0.1 0.3-0.1 0.5-0.1 0.1-0.1 0.3-0.1 0.2-0.2 0.4 0 0.1-0.1 0.3-0.1 0.2-0.2 0.5 0 0.1-0.1 0.2 0 0.2-0.1 0.3 0 0.2-0.1 0.3 0 0.1-0.1 0.2 0 0.2-0.1 0.3 0 0.1-0.1 0.2 0 0.2-0.1 0.3 0 0.2-0.1 0.3 0 0.1 0 0.2-0.1 0.2-0.2 0.3 0 0.1-0.1 0.3 0 0.1-0.1 0.2 0 0.2-0.1 0.3 0 0.1-0.1 0.3 0 0.1-0.1 0.2 0 0.2 0 0.3-0.1 0.2-0.2 0.4-0.1 0.2-0.2 0.5 0 0 0 0-0.1-0.2-0.1-0.3-0.1-0.1-0.1-0.3-0.1-0.1-0.1-0.2-0.1-0.2-0.1-0.3-0.1-0.2-0.2-0.3 0-0.2 0-0.3-0.1-0.1-0.2-0.2 0-0.2-0.1-0.3 0-0.2-0.1-0.3 0-0.2-0.1-0.3 0-0.2-0.2-0.4-0.1-0.3-0.2-0.6-0.1-0.3-0.2-0.5 0-0.3-0.1-0.5 0 0 0-0.1-0.1-0.1-0.2-0.2 0-0.1 0-0.3-0.1-0.1-0.1-0.2-0.1-0.1-0.1-0.3-0.1-0.1-0.1-0.2-0.1-0.2-0.1-0.4-0.1-0.1-0.1-0.2-0.1-0.1-0.1-0.3-0.1-0.1-0.1-0.2-0.1-0.1-0.1-0.3-0.1-0.1-0.1-0.2-0.1-0.2-0.1-0.3-0.1-0.3-0.2-0.5-0.1-0.1-0.1-0.2-0.1-0.2-0.1-0.4-0.1-0.1-0.1-0.2-0.1-0.1-0.1-0.3 0-0.1-0.2-0.1-3 0-6 0h-0.1v0.1q0 8.8 0 17.6c0 0.1 0 0.1 0.2 0.1q2 0 4.1 0c0.2 0 0.2 0 0.2-0.2q0-2.2 0-4.5 0-3.4 0-6.7 0-0.1 0-0.2 0 0 0 0 0 0.1 0.1 0.1 0 0.2 0.1 0.3 0 0.2 0.1 0.3 0 0.1 0.1 0.3 0 0.1 0.1 0.2 0 0.2 0.1 0.4 0 0.1 0.1 0.2c0 0.1 0.1 0.2 0.1 0.3q0 0.1 0.1 0.3 0 0.1 0.1 0.1 0 0.2 0.1 0.3 0 0.2 0.1 0.3 0 0.2 0.2 0.4 0.1 0.3 0.2 0.6 0 0.2 0.1 0.4 0.1 0.1 0.1 0.3 0.1 0.1 0.1 0.3 0 0 0 0.1 0.1 0.1 0.2 0.2 0 0.2 0 0.3 0.1 0.2 0.2 0.4 0.1 0.2 0.2 0.4 0 0.2 0.1 0.5 0.1 0.1 0.1 0.2 0.1 0.2 0.2 0.5 0.1 0.1 0.1 0.2 0.1 0.2 0.1 0.3 0.1 0.1 0.1 0.2 0 0.1 0.1 0.3 0 0.1 0.1 0.3 0 0.1 0.1 0.2 0 0.2 0.1 0.4 0.1 0.1 0.1 0.2 0.1 0.2 0.1 0.3 0.1 0.1 0.1 0.3 0.1 0.1 0.1 0.2 0.1 0.1 0.1 0.2 0 0.2 0.1 0.3c0 0.1 0.1 0.2 0.1 0.3 0 0.1 0.1 0.2 0.3 0.2q0.8 0 1.6 0c0.1 0 0.1 0 0.2 0 0.1 0 0-0.1 0.1-0.2 0-0.2 0.1-0.3 0.1-0.4q0.1-0.3 0.2-0.5 0-0.1 0.1-0.3 0-0.1 0.1-0.2 0-0.1 0.1-0.3 0-0.1 0.1-0.2 0-0.1 0.1-0.3 0-0.1 0.1-0.2 0-0.2 0.1-0.3 0-0.1 0.1-0.3 0-0.1 0.1-0.2 0-0.1 0.1-0.2 0-0.2 0.1-0.3 0-0.2 0.1-0.4 0 0 0 0c0-0.1 0.1-0.2 0.1-0.3q0.1-0.1 0.1-0.3 0.1-0.2 0.2-0.5 0-0.1 0.1-0.2 0-0.2 0.1-0.3 0-0.1 0.1-0.3 0.1-0.1 0.1-0.3 0.1-0.1 0.1-0.2 0.1-0.3 0.2-0.5 0.1-0.2 0.1-0.5 0.1-0.1 0.1-0.2 0.1-0.1 0.1-0.3 0.1-0.1 0.1-0.2 0.1-0.3 0.2-0.5 0.1-0.1 0.1-0.3 0.1-0.1 0.1-0.3 0.1-0.1 0.1-0.2 0.1-0.2 0.1-0.3 0.1-0.1 0.1-0.3 0.1-0.2 0.2-0.5 0 0 0.1 0c0-0.1 0-0.2 0.1-0.3q0-0.1 0-0.3 0.1-0.1 0.1-0.2 0.1 0 0.1 0 0 0.1 0 0.2 0 5.6 0 11.2c0 0.2 0 0.3 0.2 0.3q2.1 0 4.1 0c0.2 0 0.2 0 0.2-0.2v-17.6-0.2h-0.2z"></path>
      <path fill-rule="evenodd" class="s0" d="m33.4 16.3c0 1.4 0 2.9 0 4.3q0 0.2-0.2 0.2-1.8 0-3.6 0c-0.2 0-0.2 0-0.2-0.2q0-0.5 0-0.9 0-0.1-0.1-0.1 0 0 0 0.1-0.1 0.1-0.3 0.2c-0.1 0.1-0.2 0.2-0.4 0.3q-0.2 0.1-0.3 0.2-0.1 0.1-0.2 0.1c-0.2 0.1-0.3 0.2-0.5 0.2q-0.1 0.1-0.3 0.1-0.1 0.1-0.3 0.1 0 0.1 0 0.1-0.3 0-0.6 0c-0.4 0.2-0.9 0.1-1.3 0.1-0.2 0-0.4 0-0.6-0.1-0.1-0.1-0.2-0.1-0.4-0.1q-0.1-0.1-0.2-0.1-0.2-0.1-0.3-0.1-0.2-0.1-0.3-0.2-0.2-0.1-0.3-0.2-0.2-0.1-0.4-0.3-0.3-0.2-0.5-0.5-0.1-0.2-0.3-0.4-0.1-0.2-0.2-0.3c0-0.1 0-0.2 0-0.3q-0.1-0.1-0.2-0.2 0-0.2 0-0.3-0.1-0.2-0.1-0.5 0-0.2-0.1-0.5 0-0.3 0-0.5 0.1-0.3 0.1-0.6 0.1-0.2 0.1-0.4 0.1-0.1 0.1-0.3 0-0.1 0.1-0.2 0.1-0.2 0.2-0.5 0.1-0.1 0.3-0.3 0.1-0.2 0.3-0.4 0.2-0.2 0.4-0.4 0.2 0 0.3-0.1 0.3-0.2 0.5-0.3 0.2 0 0.3-0.1 0.1 0 0.3-0.1 0 0 0.1 0 0.2-0.1 0.3-0.1 0.8-0.1 1.6 0c0.1 0 0.3 0 0.5 0q0.2 0.1 0.4 0.2 0 0 0 0 0.2 0 0.5 0 0.2 0.1 0.4 0.2 0.2 0.1 0.4 0.2 0.1 0.1 0.3 0.2 0.1 0.1 0.3 0.2 0.1 0.1 0.3 0.3 0 0 0.1 0.1c0 0 0-0.1 0-0.1q0-0.1 0-0.2 0-0.6 0-1.2c0-0.1 0-0.3-0.1-0.4q-0.1-0.1-0.1-0.2-0.2-0.2-0.4-0.4-0.2-0.2-0.5-0.3c-0.1-0.1-0.2-0.1-0.4-0.2q-0.2 0-0.5-0.1-0.1 0-0.2 0-0.4 0-0.7 0-0.3 0-0.5 0.1-0.3 0-0.5 0.1-0.3 0.1-0.4 0.2-0.4 0.1-0.7 0.3-0.3 0.2-0.6 0.4c-0.1 0-0.2 0.1-0.3 0.2 0 0-0.1 0.1-0.1 0q-0.1-0.2-0.2-0.5-0.1-0.2-0.3-0.4-0.1-0.2-0.2-0.4-0.1-0.1-0.2-0.3-0.1-0.2-0.2-0.3 0-0.2-0.1-0.3-0.1-0.2-0.2-0.4-0.1-0.1-0.1-0.2 0 0 0 0 0.2-0.1 0.4-0.3c0.1 0 0.2-0.2 0.3-0.2 0.1-0.1 0.2-0.1 0.3-0.2q0.1-0.1 0.3-0.2 0 0 0.1-0.1 0.2-0.1 0.4-0.2 0.3-0.1 0.5-0.1c0-0.1 0.1-0.1 0.2-0.2q0.1 0 0.2 0 0.2-0.1 0.4-0.1 0.2-0.1 0.4-0.2 0.2 0 0.4 0c0.3-0.1 0.5 0 0.7-0.1 0.2-0.1 0.4-0.1 0.7-0.1q0.7 0 1.4 0 0.3 0.1 0.6 0.1 0.3 0.1 0.6 0.2 0.2 0 0.4 0.1 0.1 0 0.3 0.1 0.1 0 0.2 0.1 0.1 0 0.2 0.1 0.2 0.1 0.4 0.2 0.1 0.1 0.2 0.1 0.4 0.3 0.7 0.6c0.1 0.1 0.2 0.2 0.3 0.4q0.1 0.1 0.2 0.3 0.1 0.1 0.2 0.2 0 0.1 0.1 0.2 0 0.1 0 0.2 0.1 0.2 0.2 0.3 0 0 0 0 0 0.2 0.1 0.4 0 0.3 0.1 0.5c0 0.1 0 0.3 0 0.4 0.1 1.4 0 2.9 0 4.3zm-4 1c0-0.2 0-0.3 0-0.4q0-0.3 0-0.6 0 0 0-0.1c-0.1-0.2-0.3-0.3-0.5-0.4q-0.1 0-0.2-0.1-0.1 0-0.2-0.1c-0.1 0-0.2 0-0.3-0.1-0.2-0.1-0.4-0.1-0.5-0.1-0.4 0-0.8 0-1.1 0.1q-0.2 0-0.4 0.1-0.1 0.1-0.2 0.1-0.2 0.1-0.3 0.2c-0.1 0.1-0.3 0.3-0.4 0.5 0 0.1-0.1 0.3-0.1 0.4 0 0.1 0 0.3 0.1 0.4q0 0.2 0.1 0.4 0.2 0.3 0.4 0.4 0.3 0.2 0.7 0.3 0.2 0.1 0.5 0.1 0.3 0 0.6-0.1 0.4 0 0.7-0.1c0.2-0.1 0.3-0.1 0.5-0.2q0.2-0.1 0.4-0.3c0.1-0.1 0.2-0.2 0.2-0.4z"></path>
      <path fill-rule="evenodd" class="s0" d="m72.1 16.3c0.1 1.4 0 2.9 0 4.3q0 0.2-0.2 0.2-1.8 0-3.6 0c-0.2 0-0.2 0-0.2-0.2q0-0.5 0-0.9 0-0.1 0-0.1-0.1 0-0.1 0.1-0.1 0.1-0.3 0.2c-0.1 0.1-0.2 0.2-0.3 0.3q-0.2 0.1-0.4 0.2-0.1 0.1-0.2 0.1c-0.1 0.1-0.3 0.2-0.4 0.2q-0.2 0.1-0.3 0.1-0.2 0.1-0.4 0.1 0 0.1 0 0.1-0.3 0-0.6 0c-0.4 0.2-0.9 0.1-1.3 0.1-0.2 0-0.4 0-0.6-0.1-0.1-0.1-0.2-0.1-0.3-0.1q-0.2-0.1-0.3-0.1-0.1-0.1-0.2-0.1-0.2-0.1-0.4-0.2-0.2-0.1-0.3-0.2-0.2-0.1-0.4-0.3-0.2-0.2-0.4-0.5-0.2-0.2-0.3-0.4-0.2-0.2-0.2-0.3c-0.1-0.1-0.1-0.2-0.1-0.3q-0.1-0.1-0.1-0.2-0.1-0.2-0.1-0.3 0-0.2-0.1-0.5 0-0.2 0-0.5-0.1-0.3 0-0.5 0-0.3 0-0.6 0.1-0.2 0.2-0.4 0-0.1 0-0.3 0.1-0.1 0.1-0.2 0.1-0.2 0.3-0.5 0.1-0.1 0.2-0.3 0.2-0.2 0.4-0.4 0.2-0.2 0.4-0.4 0.1 0 0.3-0.1 0.2-0.2 0.4-0.3 0.2 0 0.3-0.1 0.2 0 0.4-0.1 0 0 0 0 0.2-0.1 0.3-0.1 0.8-0.1 1.6 0c0.2 0 0.4 0 0.5 0q0.2 0.1 0.4 0.2 0.1 0 0.1 0 0.2 0 0.4 0 0.2 0.1 0.4 0.2 0.2 0.1 0.4 0.2 0.1 0.1 0.3 0.2 0.2 0.1 0.3 0.2 0.2 0.1 0.3 0.3 0 0 0.1 0.1c0 0 0-0.1 0-0.1q0-0.1 0-0.2 0.1-0.6 0-1.2c0-0.1 0-0.3-0.1-0.4q-0.1-0.1-0.1-0.2-0.2-0.2-0.4-0.4-0.2-0.2-0.4-0.3c-0.2-0.1-0.3-0.1-0.5-0.2q-0.2 0-0.5-0.1-0.1 0-0.2 0-0.4 0-0.7 0-0.3 0-0.5 0.1-0.3 0-0.5 0.1-0.2 0.1-0.4 0.2-0.3 0.1-0.7 0.3-0.3 0.2-0.6 0.4c-0.1 0-0.2 0.1-0.3 0.2 0 0-0.1 0.1-0.1 0q-0.1-0.2-0.2-0.5-0.1-0.2-0.2-0.4-0.2-0.2-0.3-0.4-0.1-0.1-0.2-0.3-0.1-0.2-0.2-0.3 0-0.2-0.1-0.3-0.1-0.2-0.2-0.4-0.1-0.1-0.1-0.2 0 0 0 0 0.2-0.1 0.4-0.3c0.1 0 0.2-0.2 0.3-0.2 0.1-0.1 0.2-0.1 0.3-0.2q0.1-0.1 0.3-0.2 0 0 0.1-0.1 0.2-0.1 0.4-0.2c0.2-0.1 0.3-0.1 0.5-0.1 0-0.1 0.1-0.1 0.2-0.2q0.1 0 0.2 0 0.2-0.1 0.3-0.1 0.2-0.1 0.5-0.2 0.2 0 0.4 0c0.2-0.1 0.5 0 0.7-0.1 0.2-0.1 0.4-0.1 0.7-0.1q0.7 0 1.4 0 0.3 0.1 0.6 0.1 0.3 0.1 0.6 0.2 0.2 0 0.4 0.1 0.1 0 0.3 0.1 0.1 0 0.2 0.1 0.1 0 0.2 0.1 0.2 0.1 0.4 0.2 0.1 0.1 0.2 0.1 0.4 0.3 0.6 0.6c0.2 0.1 0.3 0.2 0.4 0.4q0.1 0.1 0.2 0.3 0.1 0.1 0.1 0.2 0.1 0.1 0.1 0.2 0.1 0.1 0.1 0.2 0.1 0.2 0.2 0.3 0 0 0 0 0 0.2 0 0.4 0.1 0.3 0.2 0.5c0 0.1 0 0.3 0 0.4 0.1 1.4 0 2.9 0 4.3zm-4 1c0-0.2 0-0.3 0-0.4q0-0.3 0-0.6 0 0 0-0.1c-0.1-0.2-0.3-0.3-0.5-0.4q-0.1 0-0.2-0.1-0.1 0-0.2-0.1c-0.1 0-0.2 0-0.3-0.1-0.2-0.1-0.4-0.1-0.5-0.1-0.4 0-0.8 0-1.1 0.1q-0.2 0-0.4 0.1-0.1 0.1-0.2 0.1-0.1 0.1-0.3 0.2c-0.1 0.1-0.3 0.3-0.3 0.5-0.1 0.1-0.2 0.3-0.2 0.4 0 0.1 0 0.3 0.1 0.4q0 0.2 0.1 0.4 0.2 0.3 0.5 0.4 0.3 0.2 0.6 0.3 0.3 0.1 0.5 0.1 0.3 0 0.6-0.1 0.4 0 0.7-0.1c0.2-0.1 0.4-0.1 0.5-0.2q0.3-0.1 0.4-0.3c0.2-0.1 0.2-0.2 0.2-0.4z"></path>
      <path fill-rule="evenodd" class="s0" d="m45.6 15.6q0-0.2-0.1-0.4c-0.1-0.2-0.1-0.3-0.2-0.5-0.1-0.2-0.3-0.3-0.4-0.5q-0.4-0.4-0.9-0.7-0.2-0.2-0.5-0.3-0.2-0.1-0.4-0.1-0.1-0.1-0.3-0.1-0.1-0.1-0.3-0.1-0.2-0.1-0.4-0.1 0 0 0 0-0.2-0.1-0.4-0.1-0.3-0.1-0.6-0.1-0.2-0.1-0.5-0.2-0.3 0-0.7-0.1-0.2 0-0.4-0.1-0.2 0-0.4-0.1 0 0-0.1 0-0.1-0.1-0.2-0.1c-0.1 0-0.3-0.3-0.3-0.4 0-0.1 0.1-0.1 0.1-0.2 0-0.2 0.2-0.3 0.3-0.4 0.1-0.1 0.3-0.2 0.5-0.2q0.3-0.1 0.5-0.1c0.3 0 0.6 0.1 0.8 0.1q0.3 0 0.6 0 0.1 0.1 0.3 0.1 0 0 0 0 0.1 0.1 0.3 0.2 0.1 0 0.3 0.1 0.1 0 0.2 0 0.1 0.1 0.2 0.2 0.1 0 0.3 0.1 0.1 0.1 0.2 0.2 0.3 0.2 0.5 0.3c0.1 0.1 0.1 0.2 0.2 0q0.1-0.2 0.1-0.3 0.1-0.1 0.2-0.3 0.1-0.2 0.2-0.4 0.1-0.1 0.2-0.3 0-0.2 0.1-0.3 0.2-0.3 0.4-0.6 0.1-0.2 0.2-0.3c0-0.1 0-0.2 0.1-0.3q-0.3-0.2-0.5-0.3-0.1-0.1-0.3-0.2-0.1 0-0.1-0.1-0.2-0.1-0.4-0.2-0.1 0-0.3-0.1-0.1-0.1-0.2-0.1-0.1-0.1-0.3-0.1-0.1-0.1-0.2-0.1-0.2-0.1-0.3-0.1-0.2-0.1-0.4-0.1 0 0 0 0-0.2-0.1-0.4-0.1-0.2-0.1-0.4-0.1-0.3-0.1-0.6-0.1-0.3 0-0.6 0c-0.5 0-1 0-1.5 0.1q-0.2 0-0.5 0.1-0.2 0-0.4 0.1c-0.1 0-0.2 0-0.3 0.1q-0.2 0.1-0.4 0.2-0.2 0.1-0.4 0.1-0.1 0.1-0.2 0.1-0.1 0.1-0.2 0.2-0.2 0.1-0.4 0.3-0.1 0.1-0.3 0.3-0.1 0.1-0.2 0.2-0.2 0.2-0.3 0.4-0.1 0.3-0.2 0.5-0.1 0.1-0.1 0.2-0.1 0.2-0.1 0.4c0 0 0 0 0 0-0.1 0.2-0.1 0.4-0.2 0.6q0 0.3 0 0.6 0.1 0.4 0.1 0.7 0 0 0 0.1 0.1 0.2 0.1 0.4 0.1 0.1 0.1 0.2 0.1 0.2 0.2 0.3 0.1 0.2 0.3 0.4 0.2 0.3 0.4 0.5 0.2 0.2 0.4 0.3c0.1 0.1 0.2 0.1 0.3 0.2q0.2 0.1 0.4 0.2 0.1 0 0.2 0 0.1 0.1 0.2 0.2 0.2 0 0.3 0 0.3 0.1 0.5 0.2 0.1 0 0.1 0c0.1 0 0.2 0.1 0.4 0.1q0.3 0.1 0.6 0.2c0.2 0 0.3 0 0.5 0 0.1 0.1 0.2 0.1 0.4 0.1 0.2 0.1 0.5 0.1 0.7 0.1q0.2 0.1 0.5 0.1 0 0 0 0 0.2 0.1 0.3 0.2 0.3 0.1 0.3 0.4 0.1 0.3-0.1 0.5-0.2 0.2-0.5 0.3-0.2 0.1-0.4 0.1c-0.2 0.1-0.4 0-0.6 0.1 0 0-0.1 0-0.1 0q-0.1 0-0.2 0-0.4-0.1-0.8-0.1-0.1 0-0.1-0.1-0.2 0-0.4-0.1-0.2 0-0.3-0.1-0.1 0-0.2 0-0.2-0.1-0.3-0.2-0.1 0-0.2-0.1-0.3-0.1-0.5-0.2-0.2-0.1-0.4-0.2-0.3-0.2-0.5-0.4-0.2-0.1-0.4-0.3-0.9 1.5-1.7 3 0.1 0 0.1 0.1 0.3 0.2 0.5 0.3c0.2 0.1 0.3 0.3 0.5 0.4q0.2 0.1 0.5 0.2 0 0 0.1 0.1 0.1 0 0.3 0.1 0 0 0.1 0c0 0 0.1 0.1 0.2 0.1q0.1 0.1 0.3 0.1c0.2 0.1 0.3 0.2 0.5 0.2q0.2 0.1 0.4 0.1 0 0 0.1 0 0.2 0.1 0.4 0.1c0.1 0.1 0.3 0 0.4 0.1q0.3 0.1 0.6 0c0.7 0 1.4 0.1 2 0 0.1 0 0.2 0 0.4 0q0.2-0.1 0.5-0.1 0.2-0.1 0.4-0.1 0.2-0.1 0.3-0.1 0.1-0.1 0.3-0.1 0.1-0.1 0.2-0.1 0.2-0.2 0.5-0.3 0.2-0.2 0.5-0.3 0.2-0.2 0.4-0.4 0.2-0.2 0.4-0.4 0.1-0.2 0.2-0.5 0.2-0.3 0.3-0.6c0.1-0.1 0.1-0.3 0.1-0.5q0.1-0.3 0.1-0.6c0-0.1 0-0.3 0-0.4 0-0.3 0-0.6-0.2-0.9z"></path>
      <path fill-rule="evenodd" class="s0" d="m58.9 10.7q0-0.2 0-0.4v-0.1q-0.1-0.1-0.2-0.3 0-0.2 0-0.3-0.1-0.2-0.2-0.3c-0.1-0.1-0.2-0.3-0.3-0.4q-0.1-0.2-0.3-0.3-0.1-0.2-0.3-0.3-0.1-0.1-0.2-0.1-0.3-0.2-0.5-0.3-0.1 0-0.3-0.1-0.2-0.1-0.4-0.1 0 0-0.1 0c-0.1 0-0.3-0.1-0.5-0.1-0.5 0-1.1-0.1-1.7 0-0.1 0.1-0.2 0.1-0.4 0.1-0.2 0-0.3 0.1-0.5 0.1q-0.2 0.1-0.4 0.2-0.2 0.1-0.4 0.1-0.1 0.1-0.2 0.1-0.1 0.1-0.3 0.2-0.2 0.1-0.4 0.3-0.1 0.1-0.2 0.2-0.2 0.2-0.4 0.3-0.1 0.1-0.2 0.2v-6.5h-0.1-3.7c-0.2 0-0.2 0-0.2 0.2v15.8q0 0.8 0 1.7 0 0.2 0.2 0.2 1.8 0 3.6 0 0.2 0 0.2-0.2 0-4 0-8.1 0 0 0-0.1 0 0 0.1-0.1 0.1-0.2 0.3-0.4 0.2-0.1 0.5-0.3 0.1-0.1 0.2-0.1 0.1-0.1 0.3-0.1 0.1-0.1 0.3-0.1c0.2-0.1 0.4-0.1 0.6-0.1 0.2-0.1 0.4 0 0.6 0 0.2 0 0.4 0.1 0.5 0.1q0.3 0.1 0.5 0.3c0.1 0.1 0.2 0.2 0.3 0.3 0 0.1 0.1 0.2 0.1 0.3 0.1 0.2 0.1 0.4 0.1 0.5q0 0.3 0 0.6 0 3.6 0 7.3c0 0.1 0.1 0.2 0.3 0.2h3.6q0 0 0 0 0.2 0 0.2-0.2 0-2.5 0-4.9c0-1.7 0.1-3.3-0.1-5z"></path>
      <path fill-rule="evenodd" class="s0" d="m86.8 14.1c0 0.1 0.1 0.2 0.1 0.3-0.1 0.2-0.1 0.4-0.1 0.6q0 0.1 0 0.2 0 0.4-0.1 0.7 0 0.4-0.1 0.7-0.1 0.3-0.1 0.5-0.1 0.2-0.2 0.4-0.1 0.3-0.2 0.5-0.1 0.3-0.3 0.5c-0.1 0.2-0.2 0.4-0.4 0.5-0.1 0.4-0.5 0.6-0.7 0.9-0.1 0.1-0.3 0.2-0.4 0.3q-0.2 0.1-0.3 0.2-0.2 0.1-0.4 0.2-0.1 0.1-0.2 0.1-0.2 0.1-0.3 0.1-0.2 0.1-0.4 0.1-0.2 0.1-0.4 0.1c-0.5 0.1-1 0.1-1.5 0.1-0.2-0.1-0.4 0-0.6-0.1q0-0.1 0-0.1-0.2 0-0.4-0.1-0.2 0-0.3-0.1-0.2-0.1-0.4-0.1-0.2-0.1-0.3-0.2-0.2-0.1-0.3-0.3-0.2-0.1-0.4-0.3-0.2-0.2-0.4-0.4 0 0-0.1-0.1 0 0.1 0 0.1 0 0.6 0 1.2c0 0.1 0 0.2-0.2 0.2q-1.8 0-3.7 0c-0.1 0-0.1-0.1-0.1-0.2 0-5.9 0-11.8 0-17.7h4v6.4q0 0 0 0 0.1-0.1 0.2-0.3 0.2-0.2 0.5-0.4 0.2-0.2 0.5-0.4c0.1-0.1 0.2-0.2 0.3-0.2q0.1-0.1 0.2-0.1 0.1-0.1 0.2-0.1 0.1 0 0.3-0.1 0.2-0.1 0.4-0.1 0 0 0 0 0.4-0.1 0.8-0.1 0.4 0 0.9 0 0.2 0 0.5 0.1 0.2 0 0.5 0.1 0.2 0.1 0.4 0.2 0.2 0.1 0.4 0.2 0.2 0.1 0.3 0.1 0.2 0.1 0.3 0.2 0.1 0.1 0.2 0.2 0.2 0.2 0.4 0.4c0.2 0.1 0.3 0.3 0.4 0.5 0.1 0.1 0.2 0.2 0.3 0.4q0.1 0.1 0.2 0.3 0.1 0.1 0.2 0.3 0 0.2 0.1 0.4 0.1 0.1 0.1 0.2 0.1 0.1 0.1 0.3 0.1 0 0.1 0.1 0 0.2 0.1 0.4 0 0.2 0.1 0.4 0 0.3 0.1 0.6c0.1 0.4 0 0.8 0.1 1.2zm-4.2-0.7q0 0 0 0-0.1-0.2-0.1-0.3-0.1-0.2-0.1-0.3c-0.1-0.1-0.1-0.2-0.2-0.3q-0.1-0.2-0.2-0.3c-0.1-0.1-0.3-0.3-0.4-0.4-0.2-0.2-0.4-0.3-0.6-0.4-0.1-0.1-0.3-0.1-0.4-0.1q-0.3-0.1-0.5-0.1-0.4 0-0.8 0.1-0.1 0-0.2 0-0.3 0.1-0.5 0.2-0.2 0.1-0.4 0.3-0.3 0.2-0.5 0.4c-0.1 0.1-0.1 0.2-0.1 0.3q0 1.9 0 3.7-0.1 0.1 0 0.1c0.1 0.2 0.2 0.3 0.3 0.4 0.1 0.1 0.3 0.2 0.4 0.3 0.1 0.1 0.3 0.1 0.5 0.2q0.1 0 0.2 0.1 0.2 0.1 0.4 0.1 0.3 0 0.5 0 0.3 0 0.6 0 0 0 0.1 0 0.1-0.1 0.3-0.1c0.1-0.1 0.2-0.1 0.3-0.1q0.2-0.1 0.4-0.3 0.2-0.1 0.3-0.3 0.2-0.2 0.3-0.5 0.2-0.2 0.3-0.4 0.1-0.3 0.1-0.5 0.1-0.3 0.1-0.5c0-0.4 0-0.9-0.1-1.3z"></path>
      <path fill-rule="evenodd" class="s0" d="m105.5 15.5c0 0.2-0.1 0.2-0.2 0.2q-4.3 0-8.5 0-0.1 0-0.2 0 0 0.2 0.1 0.4c0 0 0.1 0.1 0.1 0.1 0.1 0.2 0.2 0.4 0.3 0.5q0 0.1 0.1 0.1 0 0.1 0.1 0.2 0.3 0.2 0.6 0.3 0.1 0.1 0.3 0.2c0.1 0.1 0.3 0.1 0.4 0.1 0.1 0.1 0.2 0.1 0.4 0.1 0.3 0.1 0.7 0.1 1.1 0.1 0.2-0.1 0.4-0.1 0.6-0.2q0 0 0 0 0.2 0 0.4-0.1c0.2 0 0.3-0.1 0.5-0.1q0.1-0.1 0.2-0.1 0.2-0.1 0.3-0.2 0.2-0.1 0.3-0.2 0.1-0.1 0.2-0.1c0.1-0.1 0.1-0.1 0.2 0q0.1 0.2 0.2 0.3 0.2 0.3 0.4 0.5 0.1 0.2 0.2 0.4 0.1 0.2 0.3 0.5 0.1 0.2 0.2 0.3 0.2 0.3 0.3 0.5 0 0 0.1 0c-0.2 0.2-0.3 0.3-0.4 0.4-0.1 0-0.2 0.2-0.3 0.2q-0.1 0.1-0.2 0.1-0.1 0.1-0.3 0.2-0.1 0-0.2 0.1-0.2 0.1-0.3 0.1-0.1 0.1-0.2 0.1-0.2 0.1-0.4 0.1-0.1 0.1-0.2 0.1-0.2 0.1-0.4 0.1-0.2 0.1-0.4 0.1-0.1 0-0.1 0c-0.3 0.1-0.5 0.1-0.8 0.1-0.6 0.2-1.2 0.1-1.8 0.1q-0.3 0-0.6-0.1-0.2 0-0.3 0-0.2-0.1-0.4-0.2-0.2 0-0.3-0.1-0.2 0-0.4-0.1-0.1 0-0.2-0.1-0.2-0.1-0.3-0.1 0-0.1-0.1-0.1-0.3-0.1-0.5-0.3-0.3-0.1-0.5-0.3-0.1 0-0.2-0.1-0.1-0.2-0.3-0.4c-0.2-0.2-0.4-0.3-0.6-0.6-0.1-0.1-0.2-0.3-0.3-0.4-0.1-0.2-0.2-0.3-0.3-0.5q-0.1-0.2-0.2-0.4 0-0.1 0-0.2-0.1-0.1-0.2-0.3 0-0.1 0-0.2-0.1-0.2-0.1-0.3-0.1-0.3-0.1-0.5 0 0 0 0-0.1-0.5-0.1-0.9 0-0.4-0.1-0.8 0-0.4 0.1-0.8c0-0.1 0-0.3 0.1-0.4q0-0.2 0.1-0.4 0-0.2 0.1-0.4 0-0.1 0.1-0.3 0 0 0 0 0.1-0.2 0.1-0.3 0.1-0.2 0.1-0.3 0.1-0.2 0.3-0.4c0-0.1 0.1-0.2 0.1-0.3 0.1-0.1 0.2-0.2 0.3-0.4 0.1-0.2 0.2-0.3 0.3-0.4q0.2-0.2 0.3-0.4 0.3-0.2 0.5-0.4 0.3-0.2 0.6-0.4 0.2-0.2 0.5-0.3 0.2-0.1 0.3-0.2 0.2 0 0.3-0.1 0.1 0 0.3-0.1 0 0 0 0 0.3-0.1 0.5-0.1 0 0 0 0 0.3-0.1 0.6-0.1c0.6-0.1 1.2-0.1 1.8-0.1q0.3 0 0.6 0.1 0.3 0.1 0.5 0.1 0.2 0.1 0.3 0.2 0.1 0 0.3 0 0.2 0.1 0.4 0.2 0.3 0.2 0.6 0.4 0.3 0.2 0.6 0.5 0.3 0.2 0.5 0.4 0.2 0.1 0.3 0.3 0.2 0.2 0.3 0.4 0.1 0.2 0.2 0.3 0.1 0.1 0.1 0.2 0.1 0.3 0.3 0.5 0 0.1 0.1 0.2 0 0.2 0.1 0.4 0.1 0.3 0.2 0.6 0 0.2 0.1 0.4 0 0.3 0.1 0.5c0 0.2 0 0.3 0 0.4 0.1 0.7 0.1 1.3 0.1 1.9zm-9-2.6h5.2q0-0.3-0.1-0.6-0.1-0.2-0.2-0.3c-0.1-0.2-0.1-0.3-0.2-0.4q-0.3-0.2-0.5-0.4-0.1-0.1-0.2-0.1-0.3-0.1-0.5-0.2-0.2 0-0.5 0-0.3-0.1-0.6 0-0.4 0-0.7 0.1-0.1 0-0.2 0-0.2 0.1-0.4 0.2c-0.1 0.1-0.3 0.2-0.4 0.3-0.1 0.1-0.1 0.2-0.2 0.3-0.2 0.1-0.3 0.3-0.3 0.6q-0.1 0.1-0.1 0.2 0 0.1-0.1 0.2z"></path>
      <path fill-rule="evenodd" class="s0" d="m87.7 3.1v17.5c0 0.2 0 0.2 0.2 0.2q1.8 0 3.6 0c0.2 0 0.2 0 0.2-0.2v-17.6-0.1h-4z"></path>
    </g>
  </g>
</svg>
