<?xml version="1.0" encoding="UTF-8"?>
<svg xmlns="http://www.w3.org/2000/svg" width="100" height="18" viewBox="0 0 100 18" fill="none">
  <path d="M0 0.58911V5.12245H3.1V17.0891H8.35V0.58911M17.2 6.85578H14.75V5.10578H15.9833V0.572443H9.5V17.0724H14.7333V10.8558H17.1833V17.1058H22.4333V0.605778H17.1833M23.6 17.0891H33.3167V12.5391H28.6167V10.6224H31.6167V6.85578H28.6167V5.12245H33.3167V0.58911H23.6M74.6 6.17244C74.6 2.60578 71.9667 0.58911 68.2333 0.58911H62.4V17.0891H67.65V12.8558L70.65 17.0891H76.5667L72.3167 10.7558C73.8333 9.92244 74.6 8.40578 74.6 6.17244ZM67.6167 8.00578V4.93911C68.35 4.93911 69.2333 5.15578 69.5 5.95578C69.5167 6.02245 69.5333 6.10578 69.5667 6.18911C69.5667 6.18911 69.5667 6.20578 69.5667 6.22245C69.5667 6.30578 69.5833 6.38911 69.5833 6.48911C69.6 7.68911 68.4833 8.00578 67.6167 8.00578ZM43.6833 10.6391H43.6333L43.25 9.27244L42.0833 5.12245H44.15L45.5167 0.572443H35.05L41.05 17.0724H46.4333L47.0833 15.3058C47.0833 15.3058 49.9667 7.50578 51.5333 3.25578V17.0724H61.25V12.5224H56.55V10.6058H59.5V6.85578H56.5167V5.12245H61.2167V0.572443H46.7167L43.6833 10.6391ZM100 5.13911V0.605778H90.2833V17.1058H100V12.5558H95.2833V10.6391H98.2833V6.88911H95.2833V5.13911M89.2833 13.6391V6.90578H81.8833V10.6558H84.6333V11.9891C84.4167 12.1724 83.9667 12.2724 83.5 12.2724C81.5833 12.2724 80.15 10.7558 80.15 8.90578C80.15 7.05578 81.5333 5.40578 83.45 5.40578C84.6167 5.40578 87.3667 5.40578 87.3667 5.40578V0.522445H86.1167C83.7667 0.522445 81.4333 0.339111 79.2833 1.43911C77.5833 2.32244 76.25 3.80578 75.5333 5.57244C75.1167 6.60578 74.9 7.73911 74.9 8.85578C74.9 13.5391 78.5667 17.4891 83.3333 17.4891C85.7 17.4891 88 16.6058 89.25 15.5058C89.2833 14.3724 89.2833 14.1891 89.2833 13.6391Z" fill="white"></path>
</svg>
