<?xml version="1.0" encoding="UTF-8"?>
<svg xmlns="http://www.w3.org/2000/svg" width="25" height="25" viewBox="0 0 25 25" fill="none">
  <g clip-path="url(#clip0_5002_13611)">
    <path d="M12.6666 24.6318C19.294 24.6318 24.6666 19.2593 24.6666 12.6318C24.6666 6.00442 19.294 0.631836 12.6666 0.631836C6.03921 0.631836 0.666626 6.00442 0.666626 12.6318C0.666626 19.2593 6.03921 24.6318 12.6666 24.6318Z" fill="#F0F0F0"></path>
    <path d="M12.1449 12.6319H24.6666C24.6666 11.5488 24.5222 10.4996 24.2532 9.50146H12.1449V12.6319Z" fill="#D80027"></path>
    <path d="M12.1449 6.37118H22.9053C22.1708 5.17249 21.2316 4.11297 20.1365 3.24072H12.1449V6.37118Z" fill="#D80027"></path>
    <path d="M12.6666 24.6321C15.4908 24.6321 18.0866 23.656 20.1365 22.0234H5.19678C7.24667 23.656 9.84246 24.6321 12.6666 24.6321Z" fill="#D80027"></path>
    <path d="M2.42791 18.8927H22.9053C23.4951 17.9304 23.9524 16.8785 24.2532 15.7622H1.08002C1.38081 16.8785 1.83817 17.9304 2.42791 18.8927Z" fill="#D80027"></path>
    <path d="M12.6666 12.6318C12.6666 6.00446 12.6666 5.22315 12.6666 0.631836C6.03925 0.631836 0.666626 6.00446 0.666626 12.6318H12.6666Z" fill="#0052B4"></path>
    <path d="M8.64633 10.9037C7.00748 10.9037 5.67895 9.5751 5.67895 7.9363C5.67895 6.29751 7.00753 4.96893 8.64633 4.96893C9.15731 4.96893 9.63811 5.09816 10.0579 5.3256C9.39937 4.68168 8.49881 4.28418 7.50502 4.28418C5.48803 4.28418 3.85284 5.91932 3.85284 7.93635C3.85284 9.95338 5.48803 11.5885 7.50502 11.5885C8.49881 11.5885 9.39937 11.191 10.0579 10.5471C9.63811 10.7744 9.15736 10.9037 8.64633 10.9037Z" fill="#FFDA44"></path>
    <path d="M9.48255 5.84912L10.0094 6.95078L11.1991 6.6759L10.6663 7.77461L11.6231 8.53337L10.4319 8.80192L10.4352 10.0231L9.48255 9.25909L8.52986 10.0231L8.53314 8.80192L7.34186 8.53337L8.29867 7.77461L7.76584 6.6759L8.95567 6.95078L9.48255 5.84912Z" fill="#FFDA44"></path>
  </g>
  <defs>
    <clipPath id="clip0_5002_13611">
      <rect width="24" height="24" fill="white" transform="translate(0.666626 0.631836)"></rect>
    </clipPath>
  </defs>
</svg>
