<?xml version="1.0" encoding="UTF-8"?>
<svg xmlns="http://www.w3.org/2000/svg" width="35" height="35" viewBox="0 0 35 35" fill="none">
  <path d="M18.0377 8.61504L27.3518 18.6849L15.5351 18.3319L15.399 18.5219L31.5527 26.385H16.7983C16.7799 26.385 16.7659 26.1852 16.6439 26.06C14.0063 23.3533 11.4205 20.5635 8.88122 17.7715C8.52169 17.3753 8.00454 16.8668 7.69684 16.4781C7.61155 16.3702 7.48847 16.3399 7.53705 16.1542L19.4348 16.694L19.4898 16.4792L3.44519 8.61504H18.0377Z" fill="#9F367B"></path>
  <path d="M35 10.9849L31.8744 23.0445L24.6624 20.353C24.6376 20.1597 24.9042 20.2493 25.0241 20.2601C26.4535 20.3897 27.9726 20.6877 29.3988 20.8939L31.015 13.6786C29.4863 13.8103 27.9639 14.2011 26.4362 14.3231C26.3186 14.3329 26.0346 14.402 26.0616 14.2173L34.9989 10.9859L35 10.9849Z" fill="#9F367B"></path>
  <path d="M10.2297 14.647L5.49649 14.2206L3.87485 21.2674L8.70844 20.6088L8.82936 20.7308L0 24.0151L3.01546 11.9533L10.2297 14.647Z" fill="#9F367B"></path>
</svg>
