<?xml version="1.0" encoding="UTF-8"?>
<svg xmlns="http://www.w3.org/2000/svg" width="25" height="24" viewBox="0 0 25 24" fill="none">
  <path fill-rule="evenodd" clip-rule="evenodd" d="M5.66663 4C5.66663 2.34315 7.00978 1 8.66663 1H16.6666C18.3235 1 19.6666 2.34315 19.6666 4V20C19.6666 21.6569 18.3235 23 16.6666 23H8.66663C7.00978 23 5.66663 21.6569 5.66663 20V4ZM8.66663 3C8.11435 3 7.66663 3.44772 7.66663 4V20C7.66663 20.5523 8.11435 21 8.66663 21H16.6666C17.2189 21 17.6666 20.5523 17.6666 20V4C17.6666 3.44772 17.2189 3 16.6666 3H8.66663ZM10.6666 5C10.6666 4.44772 11.1143 4 11.6666 4H13.6666C14.2189 4 14.6666 4.44772 14.6666 5C14.6666 5.55228 14.2189 6 13.6666 6H11.6666C11.1143 6 10.6666 5.55228 10.6666 5ZM11.6666 18C11.1143 18 10.6666 18.4477 10.6666 19C10.6666 19.5523 11.1143 20 11.6666 20H13.6666C14.2189 20 14.6666 19.5523 14.6666 19C14.6666 18.4477 14.2189 18 13.6666 18H11.6666Z" fill="#9F367B"></path>
</svg>
