<?xml version="1.0" encoding="UTF-8"?>
<svg xmlns="http://www.w3.org/2000/svg" width="24" height="25" viewBox="0 0 24 25" fill="none">
  <g clip-path="url(#clip0_2925_20140)">
    <path d="M23.2023 8.70741H0.797729C2.45275 4.12186 6.84292 0.84375 12 0.84375C17.1571 0.84375 21.5473 4.12186 23.2023 8.70741Z" fill="#ED1C24"></path>
    <path d="M23.9062 12.7501C23.9062 14.1866 23.652 15.5643 23.1856 16.839H0.814453C0.348047 15.5643 0.09375 14.1866 0.09375 12.7501C0.09375 11.3311 0.341672 9.96949 0.797719 8.70752H23.2023C23.6584 9.96949 23.9062 11.3311 23.9062 12.7501Z" fill="#F1F2F2"></path>
    <path d="M23.1856 16.8389C21.5179 21.4005 17.1397 24.6563 12 24.6563C6.86044 24.6563 2.48217 21.4005 0.814453 16.8389H23.1856Z" fill="#21409A"></path>
  </g>
  <defs>
    <clipPath id="clip0_2925_20140">
      <rect width="24" height="24" fill="white" transform="translate(0 0.75)"></rect>
    </clipPath>
  </defs>
</svg>
