<?xml version="1.0" encoding="UTF-8"?>
<svg xmlns="http://www.w3.org/2000/svg" width="25" height="24" viewBox="0 0 25 24" fill="none">
  <g clip-path="url(#clip0_1362_10076)">
    <path d="M1.91662 5.06645C1.96257 4.8449 2.3736 4.47392 2.62339 4.50172H21.9609C23.1046 4.6277 22.5273 6.09686 22.676 6.92223L24.3343 7.01693V8.44699C24.3343 8.49998 24.2675 8.57991 24.3343 8.66332H22.7512L22.7646 15.1968L22.8715 15.3054L24.3343 15.3366V16.7667C24.3343 16.7954 24.2241 16.8979 24.2508 16.983H22.7504C22.4981 17.9396 23.1915 19.334 21.7921 19.4965L2.95505 19.4991C2.61336 19.5156 1.91662 19.2515 1.91662 18.8458V16.9822H0.333496V15.3358H1.7086C1.73617 15.3358 1.83475 15.2211 1.91662 15.2489V8.66332H0.333496V7.01693H1.62506C1.67017 7.01693 1.81052 6.88313 1.91662 6.93005C1.99181 6.39225 1.81386 5.56167 1.91662 5.06645ZM21.0837 6.14985H3.50058V17.8492H21.0845V6.14985H21.0837Z" fill="#9F367B"></path>
    <path d="M18.9173 10.1827L18.8396 9.26694C18.7227 9.18266 18.0259 9.1705 17.9173 9.35903V14.7752H18.9173V12.6084H18.5004V11.1349C19.1379 11.3999 19.9841 10.8777 20.254 11.6979C20.406 12.1601 20.3968 14.7604 20.3342 15.3382C20.3016 15.6362 20.188 15.9741 19.8956 16.0958C19.6308 16.2061 17.4887 16.2157 17.1303 16.1566C16.7193 16.0888 16.5322 15.7404 16.4963 15.3425C16.3091 13.2252 16.6458 10.8134 16.4979 8.66311C16.5347 8.27389 16.7686 7.94026 17.1445 7.86207C17.5205 7.78388 19.4018 7.78909 19.7527 7.88292C20.5873 8.10621 20.2999 9.37554 20.3024 10.0549L20.2089 10.1818H18.9173V10.1827Z" fill="#9F367B"></path>
    <path d="M9.50051 7.81519V14.7483H10.417V7.81519H11.8338V15.5719C11.8338 15.936 11.4328 16.1115 11.1296 16.1393C10.5824 16.1896 9.14295 16.2131 8.63084 16.1297C8.4437 16.0993 8.08447 15.8386 8.08447 15.6579V7.81519H9.50135H9.50051Z" fill="#9F367B"></path>
    <path d="M12.7504 12.4433H12.25L12.3452 11.1549L12.7513 11.1436C12.8557 11.0428 12.5758 8.6831 12.8791 8.20004C13.1823 7.71699 14.7563 7.78736 15.2926 7.84991C15.8289 7.91247 16.0253 8.13662 16.0846 8.67355C16.1439 9.21047 16.1506 10.7213 16.0771 11.2652C16.0545 11.4355 15.9952 11.6275 15.8824 11.7561C15.7036 11.9603 15.4488 11.9029 15.3352 12.0949C15.6894 12.0975 15.9685 12.3417 16.0487 12.697C16.1573 13.1748 16.1255 14.6353 16.0879 15.1766C16.0595 15.5849 16.0077 16.0845 15.5382 16.1644C15.2082 16.22 13.2216 16.207 13.0261 16.0567C13.0052 16.0411 12.7513 15.6327 12.7513 15.6058V12.4424L12.7504 12.4433ZM14.1673 9.36686V11.0133C14.2408 11.1523 14.5858 11.2235 14.6761 11.0923C14.7446 10.5736 15.0345 8.71525 14.1673 9.36686ZM14.7504 14.7839V12.5736C14.7504 12.3964 14.1673 12.3964 14.1673 12.5736V14.7839H14.7504Z" fill="#9F367B"></path>
    <path d="M5.75042 12.8857V16.1794H4.25V8.59553C4.25 8.26278 4.64515 7.91526 4.96345 7.86487C5.33187 7.80579 6.58417 7.80579 6.95259 7.86487C7.38952 7.93437 7.54908 8.162 7.58667 8.59206C7.65518 9.37051 7.68776 11.5921 7.57749 12.3175C7.5424 12.5504 7.23079 12.8866 7.04114 12.8866H5.74958L5.75042 12.8857ZM6.25 9.24627H5.74958V11.5H6.25V9.24627Z" fill="#9F367B"></path>
  </g>
  <defs>
    <clipPath id="clip0_1362_10076">
      <rect width="24" height="24" fill="white" transform="translate(0.333496)"></rect>
    </clipPath>
  </defs>
</svg>
