<?xml version="1.0" encoding="UTF-8"?>
<svg xmlns="http://www.w3.org/2000/svg" width="25" height="24" viewBox="0 0 25 24" fill="none">
  <g clip-path="url(#clip0_1362_10089)">
    <path d="M1.95095 15.5461H3.56586V16.7279H0.497803V12.1688H1.95095V15.5461ZM4.38712 9.55147C4.38712 9.24103 4.4456 8.93363 4.55922 8.64682C4.67284 8.36001 4.83938 8.09941 5.04933 7.87989C5.25928 7.66038 5.50852 7.48625 5.78283 7.36745C6.05714 7.24865 6.35114 7.1875 6.64805 7.1875C6.94496 7.1875 7.23896 7.24865 7.51327 7.36745C7.78758 7.48625 8.03682 7.66038 8.24677 7.87989C8.45672 8.09941 8.62326 8.36001 8.73688 8.64682C8.8505 8.93363 8.90898 9.24103 8.90898 9.55147C8.90898 10.1784 8.67078 10.7797 8.24677 11.223C7.82276 11.6664 7.24769 11.9154 6.64805 11.9154C6.04841 11.9154 5.47334 11.6664 5.04933 11.223C4.62532 10.7797 4.38712 10.1784 4.38712 9.55147ZM5.84027 9.55147C5.84027 9.77542 5.92536 9.99021 6.07681 10.1486C6.22827 10.3069 6.43369 10.3959 6.64789 10.3959C6.86208 10.3959 7.0675 10.3069 7.21896 10.1486C7.37041 9.99021 7.4555 9.77542 7.4555 9.55147C7.4555 9.32751 7.37041 9.11273 7.21896 8.95437C7.0675 8.79601 6.86208 8.70705 6.64789 8.70705C6.43369 8.70705 6.22827 8.79601 6.07681 8.95437C5.92536 9.11273 5.84027 9.32751 5.84027 9.55147ZM13.9391 10.3112L14.8274 11.8312H16.4424L14.9889 9.55181L16.442 7.27206H14.8274L13.9391 8.79178V7.27241H12.486V11.8312H13.9391V10.3112ZM11.355 11.9154C11.5796 11.9154 11.958 11.8811 12.1628 11.8171V10.0568C12.0155 10.2623 11.6197 10.3961 11.3553 10.3961C11.1411 10.3961 10.9357 10.3071 10.7843 10.1487C10.6328 9.99038 10.5477 9.7756 10.5477 9.55164C10.5477 9.32769 10.6328 9.1129 10.7843 8.95454C10.9357 8.79618 11.1411 8.70722 11.3553 8.70722C11.6197 8.70722 12.0155 8.84128 12.1628 9.0465V7.2865C11.9576 7.22222 11.5792 7.1875 11.355 7.1875C10.7554 7.1875 10.1803 7.43656 9.75629 7.87989C9.33228 8.32322 9.09408 8.92451 9.09408 9.55147C9.09408 10.1784 9.33228 10.7797 9.75629 11.223C10.1803 11.6664 10.7554 11.9154 11.355 11.9154ZM1.95095 11.8316H0.497803V7.27206H2.75873C3.56125 7.27206 4.21189 7.86813 4.21189 8.70722C4.21189 9.34625 3.88147 9.92788 3.34723 10.0331L4.45419 11.8309H2.83961L1.95128 10.3115V11.8309L1.95095 11.8316ZM1.95095 9.46759H2.27413C2.33777 9.46759 2.40079 9.45449 2.45958 9.42902C2.51838 9.40356 2.5718 9.36624 2.6168 9.31919C2.6618 9.27214 2.69749 9.21628 2.72185 9.15481C2.7462 9.09333 2.75873 9.02745 2.75873 8.96091C2.75873 8.89437 2.7462 8.82848 2.72185 8.76701C2.69749 8.70553 2.6618 8.64967 2.6168 8.60262C2.5718 8.55557 2.51838 8.51825 2.45958 8.49279C2.40079 8.46732 2.33777 8.45422 2.27413 8.45422H1.95095V9.46759ZM16.6034 11.8316H19.6718V10.6491H18.0569V10.1424H19.349V8.96056H18.0569V8.45388H19.6718V7.27172H16.6034V11.8316ZM23.8787 16.4134L23.9343 16.5127H23.8159L23.7765 16.4327C23.7502 16.379 23.7282 16.3453 23.7107 16.3316C23.6916 16.3171 23.6683 16.3097 23.6447 16.3106H23.6197V16.5127H23.5243V16.0205H23.6197C23.7094 16.0205 23.7594 16.0208 23.7702 16.0219C23.7959 16.023 23.8211 16.0297 23.8442 16.0415C23.8616 16.0518 23.8764 16.0676 23.8883 16.0886C23.8998 16.1099 23.906 16.1333 23.906 16.1594C23.9066 16.1931 23.8945 16.2258 23.8725 16.2505C23.8477 16.2771 23.8146 16.2937 23.7791 16.2972C23.791 16.3017 23.8021 16.3075 23.812 16.3158C23.8238 16.3271 23.8347 16.3398 23.8439 16.3536C23.8472 16.3584 23.859 16.3783 23.8787 16.4134ZM23.7929 16.203C23.8006 16.1921 23.8046 16.1788 23.8044 16.1652C23.8046 16.1516 23.8004 16.1384 23.7925 16.1275C23.7847 16.1167 23.7736 16.1089 23.761 16.1054C23.7272 16.0991 23.6928 16.0968 23.6585 16.0985H23.6197V16.2329H23.6585C23.7137 16.2329 23.7482 16.2309 23.7614 16.2261C23.774 16.2222 23.7851 16.2141 23.7929 16.203ZM19.9947 8.45388H20.8025V11.8312H22.2556V8.45388H23.0634V7.27206H19.995L19.9947 8.45388ZM18.2184 14.7857C18.2184 14.9201 18.1673 15.049 18.0764 15.144C17.9855 15.2391 17.8623 15.2924 17.7337 15.2924C17.6052 15.2924 17.482 15.2391 17.3911 15.144C17.3002 15.049 17.2491 14.9201 17.2491 14.7857V12.1688H15.796V14.7861C15.796 15.3234 16.0002 15.8388 16.3636 16.2187C16.7269 16.5987 17.2198 16.8122 17.7337 16.8122C18.2477 16.8122 18.7405 16.5987 19.1039 16.2187C19.4673 15.8388 19.6715 15.3234 19.6715 14.7861V12.1684H18.2184V14.7857ZM13.4137 15.1237H14.0881C14.0262 15.2783 13.8546 15.5458 13.4141 15.5458C12.916 15.5458 12.5257 15.0989 12.5257 14.5328C12.5257 13.9171 12.9689 13.5469 13.4137 13.5197C13.9003 13.4898 14.1074 13.6985 14.2534 13.8514L15.2548 12.8583C14.7722 12.3537 14.188 12.0846 13.4137 12.0846C12.8141 12.0846 12.239 12.3336 11.815 12.777C11.391 13.2203 11.1528 13.8216 11.1528 14.4485C11.1528 15.0755 11.391 15.6768 11.815 16.1201C12.239 16.5634 12.8141 16.8125 13.4137 16.8125C14.7127 16.8125 15.5136 15.838 15.5136 14.6173V14.0264H13.4141L13.4137 15.1237ZM19.9947 16.7279H23.0631V15.5458H21.4482V15.0391H22.7402V13.8573H21.4482V13.3506H23.0631V12.1684H19.9947V16.7279ZM10.0258 12.1684L11.4793 16.7276H10.0261L9.8703 16.0521H8.72783L8.57232 16.7276H7.11917L8.57232 12.1684H10.0258ZM9.59841 14.8703L9.29923 13.5709L9.00005 14.8703H9.59841ZM3.88904 16.7276H6.95742V15.5454H5.34252V15.0388H6.63457V13.8569H5.34252V13.3502H6.95742V12.1684H3.88904V16.7276ZM24.1681 16.2635C24.1681 16.3447 24.1483 16.4217 24.1095 16.4945C24.0505 16.6008 23.9537 16.6784 23.8403 16.7105C23.7268 16.7426 23.6058 16.7265 23.5036 16.6657C23.4346 16.626 23.3778 16.5668 23.3396 16.4949C23.3011 16.4241 23.2809 16.3441 23.2812 16.2627C23.2814 16.1813 23.302 16.1013 23.3409 16.0308C23.379 15.9586 23.4362 15.8988 23.5056 15.8596C23.5725 15.8208 23.6478 15.8004 23.7244 15.8004C23.8009 15.8004 23.8762 15.8208 23.9432 15.8596C24.0132 15.8995 24.0681 15.9562 24.1082 16.0308C24.148 16.1047 24.1681 16.1824 24.1681 16.2635ZM24.0819 16.2635C24.0816 16.1975 24.0648 16.1327 24.0331 16.0757C24.0013 16.0186 23.9558 15.9713 23.9011 15.9383C23.8474 15.9071 23.787 15.8907 23.7255 15.8907C23.6641 15.8907 23.6037 15.9071 23.55 15.9383C23.4678 15.988 23.4076 16.0695 23.3826 16.1652C23.3575 16.2609 23.3696 16.363 23.4162 16.4495C23.4554 16.5206 23.5159 16.5762 23.5885 16.6077C23.661 16.6392 23.7414 16.6448 23.8173 16.6236C23.8931 16.6024 23.9602 16.5556 24.008 16.4905C24.0559 16.4254 24.0819 16.3456 24.0819 16.2635Z" fill="#9F367B"></path>
  </g>
  <defs>
    <clipPath id="clip0_1362_10089">
      <rect width="24" height="24" fill="white" transform="translate(0.333496)"></rect>
    </clipPath>
  </defs>
</svg>
