<?xml version="1.0" encoding="UTF-8"?>
<svg xmlns="http://www.w3.org/2000/svg" width="25" height="24" viewBox="0 0 25 24" fill="none">
  <g clip-path="url(#clip0_1362_10111)">
    <path d="M20.8188 3.51473C18.5523 1.24819 15.5388 0 12.3335 0C9.12818 0 6.11473 1.24819 3.84818 3.51473C1.58168 5.78123 0.333496 8.79469 0.333496 12C0.333496 15.2053 1.58168 18.2188 3.84818 20.4853C6.11473 22.7518 9.12818 24 12.3335 24C15.5388 24 18.5523 22.7518 20.8188 20.4853C23.0853 18.2188 24.3335 15.2053 24.3335 12C24.3335 8.79469 23.0853 5.78123 20.8188 3.51473ZM12.3335 2.6842C17.0577 2.6842 20.9714 6.219 21.5697 10.7826L15.7952 10.2202C15.1477 8.96602 13.8395 8.106 12.3335 8.106C10.8274 8.106 9.51931 8.96602 8.87182 10.2202L3.09725 10.7826C3.69556 6.219 7.60934 2.6842 12.3335 2.6842ZM3.09392 13.1895L8.80006 13.634C9.16053 14.4098 9.76892 15.048 10.5232 15.446L10.8972 21.205C6.82629 20.5723 3.61939 17.2942 3.09392 13.1895ZM12.3335 13.2098C11.6664 13.2098 11.1237 12.6671 11.1237 12C11.1237 11.3329 11.6665 10.7902 12.3335 10.7902C13.0005 10.7902 13.5433 11.333 13.5433 12C13.5433 12.667 13.0006 13.2098 12.3335 13.2098ZM13.7699 21.205L14.1439 15.446C14.8982 15.0481 15.5065 14.4098 15.867 13.634L21.5732 13.1895C21.0476 17.2942 17.8407 20.5723 13.7699 21.205Z" fill="#9F367B"></path>
  </g>
  <defs>
    <clipPath id="clip0_1362_10111">
      <rect width="24" height="24" fill="white" transform="translate(0.333496)"></rect>
    </clipPath>
  </defs>
</svg>
