<?xml version="1.0" encoding="UTF-8"?>
<svg xmlns="http://www.w3.org/2000/svg" width="25" height="25" viewBox="0 0 25 25" fill="none">
  <g clip-path="url(#clip0_5002_13464)">
    <path d="M24.3334 12.6318C24.3334 19.2573 18.9639 24.6288 12.3389 24.6318H12.2094C11.6277 24.6258 11.0472 24.5778 10.4724 24.4883C10.0017 24.4156 9.53583 24.3144 9.07738 24.1853C6.56025 23.4751 4.34398 21.9621 2.76563 19.8766C1.18728 17.7912 0.333233 15.2473 0.333374 12.6318C0.333374 6.00534 5.70437 0.631841 12.3334 0.631841H12.3389C13.9714 0.63038 15.587 0.963081 17.0861 1.60946C18.5853 2.25584 19.9362 3.20222 21.0559 4.39034C23.1617 6.61757 24.3345 9.56672 24.3334 12.6318Z" fill="white"></path>
    <path d="M9.3049 9.06299V9.60299H7.5604L2.6604 5.52849C2.96328 5.11649 3.29229 4.72435 3.6454 4.35449L9.3049 9.06299Z" fill="#C8102E"></path>
    <path d="M22.0219 5.5505L17.1504 9.6005H15.3619V9.0995L21.0409 4.375L21.0559 4.3905C21.3832 4.73557 21.6894 5.10007 21.9729 5.482L22.0219 5.5505Z" fill="#C8102E"></path>
    <path d="M9.30489 15.6597V16.1997L3.64539 20.9092C3.59539 20.8592 3.54539 20.8052 3.49839 20.7527C3.20068 20.4292 2.92109 20.0895 2.66089 19.7352L7.56089 15.6597H9.30489Z" fill="#C8102E"></path>
    <path d="M22.0224 19.7127C21.7207 20.125 21.3931 20.5176 21.0414 20.8882L15.3619 16.1632V15.6597H17.1504L22.0224 19.7127Z" fill="#C8102E"></path>
    <path d="M5.12587 9.60311H0.718872C0.969236 8.64298 1.33877 7.71796 1.81887 6.84961L5.12587 9.60311Z" fill="#012169"></path>
    <path d="M5.02637 15.6602L1.78337 18.3572C1.31993 17.5049 0.962447 16.5992 0.718872 15.6602H5.02637Z" fill="#012169"></path>
    <path d="M9.30489 18.1963V24.2463C9.22889 24.2268 9.15489 24.2063 9.07739 24.1848C7.50501 23.742 6.04004 22.9817 4.77289 21.9508L9.30489 18.1963Z" fill="#012169"></path>
    <path d="M9.30489 1.01758V6.97258L4.84039 3.25858C6.1542 2.20561 7.67555 1.44195 9.30489 1.01758Z" fill="#012169"></path>
    <path d="M19.8949 3.31457L15.3619 7.07207V1.01807L15.4304 1.03557C17.0629 1.47107 18.5846 2.24782 19.8949 3.31457Z" fill="#012169"></path>
    <path d="M23.9479 9.60313H19.6479L22.8834 6.91113C23.3464 7.76184 23.7038 8.66585 23.9479 9.60313Z" fill="#012169"></path>
    <path d="M19.9334 21.9211C18.5963 23.0174 17.0375 23.8108 15.3644 24.2466V18.1201L19.9334 21.9211Z" fill="#012169"></path>
    <path d="M23.9479 15.6602C23.7095 16.5765 23.3629 17.4612 22.9154 18.2957L19.7479 15.6602H23.9479Z" fill="#012169"></path>
    <path d="M24.3334 12.5063V12.7458C24.3282 13.3054 24.2843 13.8639 24.2019 14.4173H14.1189V24.4998C13.5689 24.5819 13.0139 24.626 12.4579 24.6318H12.2079C11.6516 24.6261 11.0965 24.5818 10.5464 24.4993V14.4173H0.465374C0.383325 13.8667 0.339221 13.311 0.333374 12.7543C0.333374 12.6758 0.333374 12.5968 0.333374 12.5178C0.338547 11.9581 0.382485 11.3995 0.464874 10.8458H10.5479V0.763836C11.0714 0.685558 11.5996 0.641465 12.1289 0.631836L12.5159 0.631836C13.021 0.639058 13.5252 0.678136 14.0254 0.748836L14.1189 0.762836V10.8458H24.2014C24.2834 11.3957 24.3275 11.9505 24.3334 12.5063Z" fill="#C8102E"></path>
  </g>
  <defs>
    <clipPath id="clip0_5002_13464">
      <rect width="24" height="24" fill="white" transform="translate(0.333374 0.631836)"></rect>
    </clipPath>
  </defs>
</svg>
