<?xml version="1.0" encoding="UTF-8"?>
<svg xmlns="http://www.w3.org/2000/svg" width="25" height="25" viewBox="0 0 25 25" fill="none">
  <g clip-path="url(#clip0_2925_19351)">
    <mask id="mask0_2925_19351" style="mask-type:luminance" maskUnits="userSpaceOnUse" x="0" y="0" width="25" height="25">
      <path d="M24.9286 0.75H0.928589V24.75H24.9286V0.75Z" fill="white"></path>
    </mask>
    <g mask="url(#mask0_2925_19351)">
      <path d="M12.9286 24.75C19.556 24.75 24.9286 19.3775 24.9286 12.75C24.9286 6.12258 19.556 0.75 12.9286 0.75C6.30117 0.75 0.928589 6.12258 0.928589 12.75C0.928589 19.3775 6.30117 24.75 12.9286 24.75Z" fill="#F0F0F0"></path>
      <path d="M12.4071 12.7496H24.9289C24.9289 11.6665 24.7844 10.6173 24.5155 9.61914H12.4071V12.7496Z" fill="#D80027"></path>
      <path d="M12.4071 6.48885H23.1676C22.433 5.29017 21.4937 4.23065 20.3986 3.3584H12.4071V6.48885Z" fill="#D80027"></path>
      <path d="M12.9277 24.7499C15.7519 24.7499 18.3476 23.7737 20.3975 22.1411H5.45789C7.50773 23.7737 10.1035 24.7499 12.9277 24.7499Z" fill="#D80027"></path>
      <path d="M2.68956 19.0109H23.167C23.7568 18.0486 24.2141 16.9967 24.5149 15.8804H1.34167C1.64247 16.9967 2.09983 18.0486 2.68956 19.0109Z" fill="#D80027"></path>
      <path d="M6.48721 2.62397H7.58076L6.56358 3.36295L6.95212 4.55868L5.93497 3.81971L4.91784 4.55868L5.25346 3.5257C4.35787 4.27171 3.57289 5.14575 2.92602 6.11963H3.27642L2.62893 6.59001C2.52805 6.7583 2.4313 6.92925 2.33859 7.10274L2.64777 8.05434L2.07093 7.63524C1.92754 7.93903 1.79639 8.24967 1.6785 8.56679L2.01914 9.61528H3.27642L2.25923 10.3543L2.64777 11.55L1.63064 10.811L1.02135 11.2537C0.96037 11.7439 0.928589 12.2432 0.928589 12.75H12.9286C12.9286 6.12262 12.9286 5.3413 12.9286 0.75C10.558 0.75 8.3482 1.43766 6.48721 2.62397ZM6.95212 11.55L5.93497 10.811L4.91784 11.55L5.30638 10.3543L4.2892 9.61528H5.54647L5.93497 8.41955L6.32347 9.61528H7.58076L6.56358 10.3543L6.95212 11.55ZM6.56358 6.85861L6.95212 8.05434L5.93497 7.31537L4.91784 8.05434L5.30638 6.85861L4.2892 6.11963H5.54647L5.93497 4.92388L6.32347 6.11963H7.58076L6.56358 6.85861ZM11.2565 11.55L10.2393 10.811L9.22218 11.55L9.61072 10.3543L8.59354 9.61528H9.85083L10.2393 8.41955L10.6278 9.61528H11.8851L10.8679 10.3543L11.2565 11.55ZM10.8679 6.85861L11.2565 8.05434L10.2393 7.31537L9.22218 8.05434L9.61072 6.85861L8.59354 6.11963H9.85083L10.2393 4.92388L10.6278 6.11963H11.8851L10.8679 6.85861ZM10.8679 3.36295L11.2565 4.55868L10.2393 3.81971L9.22218 4.55868L9.61072 3.36295L8.59354 2.62397H9.85083L10.2393 1.42823L10.6278 2.62397H11.8851L10.8679 3.36295Z" fill="#0052B4"></path>
    </g>
  </g>
  <defs>
    <clipPath id="clip0_2925_19351">
      <rect width="24" height="24" fill="white" transform="translate(0.928589 0.75)"></rect>
    </clipPath>
  </defs>
</svg>
